<svg xmlns="http://www.w3.org/2000/svg" width="80" height="80" viewBox="0 0 80 80">
  <defs>
    <style>
      .cls-1 {
        fill: #2c3e90;
      }
    </style>
  </defs>
  <path id="group" class="cls-1" d="M27.656,6.25H18.215A9.391,9.391,0,0,0,9.375,0C-1.2.2-3.534,14.6,6.25,18.215V27.5a3.125,3.125,0,0,0,6.25,0V18.215A9.423,9.423,0,0,0,18.215,12.5h9.442A3.125,3.125,0,0,0,27.656,6.25ZM9.375,12.5A3.125,3.125,0,1,1,12.5,9.375,3.129,3.129,0,0,1,9.375,12.5Zm42.813,0h9.6A9.423,9.423,0,0,0,67.5,18.215V27.5a3.125,3.125,0,0,0,6.25,0V18.215A9.391,9.391,0,0,0,80,9.375C79.8-1.2,65.4-3.534,61.785,6.25h-9.6A3.125,3.125,0,0,0,52.188,12.5ZM70.625,6.25A3.125,3.125,0,1,1,67.5,9.375,3.129,3.129,0,0,1,70.625,6.25ZM73.75,61.785v-9.6a3.125,3.125,0,0,0-6.25,0v9.6A9.423,9.423,0,0,0,61.785,67.5H52.5a3.125,3.125,0,0,0,0,6.25h9.285A9.391,9.391,0,0,0,70.625,80C81.2,79.8,83.534,65.4,73.75,61.785ZM70.625,73.75a3.125,3.125,0,1,1,3.125-3.125A3.129,3.129,0,0,1,70.625,73.75ZM27.656,67.5H18.215A9.423,9.423,0,0,0,12.5,61.785V52.344a3.125,3.125,0,0,0-6.25,0v9.442A9.391,9.391,0,0,0,0,70.625C.2,81.2,14.6,83.534,18.215,73.75h9.442A3.125,3.125,0,0,0,27.656,67.5ZM9.375,73.75A3.125,3.125,0,1,1,12.5,70.625,3.129,3.129,0,0,1,9.375,73.75ZM35.938,9.375a3.906,3.906,0,0,1,7.813,0A3.906,3.906,0,0,1,35.938,9.375Zm3.906,57.344a3.906,3.906,0,1,0,3.906,3.906A3.906,3.906,0,0,0,39.844,66.719ZM70.625,36.406a3.906,3.906,0,1,0,3.906,3.906A3.906,3.906,0,0,0,70.625,36.406Zm-61.25,0a3.906,3.906,0,1,0,3.906,3.906A3.906,3.906,0,0,0,9.375,36.406ZM61.25,39.375v12.5a9.386,9.386,0,0,1-9.375,9.375h-12.5A9.386,9.386,0,0,1,30,51.875V50H28.125a9.386,9.386,0,0,1-9.375-9.375v-12.5a9.386,9.386,0,0,1,9.375-9.375h12.5A9.386,9.386,0,0,1,50,28.125V30h1.875A9.386,9.386,0,0,1,61.25,39.375ZM30,43.75V39.375A9.386,9.386,0,0,1,39.375,30H43.75V28.125A3.129,3.129,0,0,0,40.625,25h-12.5A3.129,3.129,0,0,0,25,28.125v12.5a3.129,3.129,0,0,0,3.125,3.125Zm9.375-7.5a3.129,3.129,0,0,0-3.125,3.125V43.75h4.375a3.129,3.129,0,0,0,3.125-3.125V36.25ZM55,39.375a3.129,3.129,0,0,0-3.125-3.125H50v4.375A9.386,9.386,0,0,1,40.625,50H36.25v1.875A3.129,3.129,0,0,0,39.375,55h12.5A3.129,3.129,0,0,0,55,51.875Z"/>
</svg>
