<svg xmlns="http://www.w3.org/2000/svg" width="80" height="80" viewBox="0 0 80 80">
    <defs>
        <style>
            .cls-1{fill:#2c3e90}
        </style>
    </defs>
    <g id="content-management-system" transform="translate(-1 -1)">
        <path id="Path_1150" d="M1 1v7.742h3.843a2.031 2.031 0 0 1 .777 3.908l-3.549 1.471 3.951 9.537 3.59-1.486a2.031 2.031 0 0 1 2.194 3.308l-2.738 2.737 7.3 7.3 2.747-2.747a2 2 0 0 1 2.533-.219v7.16H8.742v2.579h12.9v5.161H13.9v2.581h7.742v5.161H6.161v2.581h15.484v5.161H7.452A6.459 6.459 0 0 0 1 69.387v5.161A6.459 6.459 0 0 0 7.452 81h59.659l12.021-6.01a3.379 3.379 0 0 0 0-6.044l-12.022-6.01h-6.755v-5.162h15.484v-2.58H60.355v-5.162H68.1v-2.58h-7.745V42.29h12.9v-2.58h-12.9v-7.167l.019-.014a1.993 1.993 0 0 1 2.514.237l2.747 2.747 7.3-7.3-2.748-2.747a2.031 2.031 0 0 1 2.2-3.3l3.59 1.486 3.951-9.537-3.548-1.471a2.03 2.03 0 0 1 .775-3.906H81V1zm74.839 69.185l2.139 1.07a.8.8 0 0 1 0 1.427l-2.139 1.07zM68.1 66.314l5.161 2.581v6.147l-5.161 2.58zM50.032 5.405l5.917 5.917h-5.917zm0 8.5v12.9H31.968V11.323h15.484V13.9zM24.226 3.581h23.226v5.161H29.387v20.645h23.226V13.9h5.161v49.035H24.226zm-2.581 0v18.961A27 27 0 0 1 13.9 3.581zm-4.357 27.361l-.923.923-3.65-3.65.912-.912a4.611 4.611 0 0 0-5.005-7.517l-1.206.5-1.975-4.77 1.164-.483a4.612 4.612 0 0 0-1.762-8.872H3.581v-2.58h7.742a29.579 29.579 0 0 0 10.322 22.482v3.693a4.576 4.576 0 0 0-4.357 1.186zm-5.965 47.477H7.452a3.876 3.876 0 0 1-3.871-3.871v-5.161a3.876 3.876 0 0 1 3.871-3.871h3.871zm5.161 0H13.9v-12.9h2.581zm49.032 0H19.065v-5.161h46.451zm0-12.9v5.161H19.065v-5.164zM51.857 3.581H68.1a27.007 27.007 0 0 1-7.742 18.96V12.079zm26.562 2.58h-1.262a4.612 4.612 0 0 0-1.764 8.872l1.164.483-1.974 4.768-1.206-.5a4.611 4.611 0 0 0-5.015 7.507l.924.923-3.65 3.65-.923-.924a4.561 4.561 0 0 0-4.357-1.181v-3.7a29.586 29.586 0 0 0 10.321-22.48h7.742z" class="cls-1"/>
        <path id="Path_1151" d="M23 37h18v2H23z" class="cls-1" transform="translate(9 10.8)"/>
        <path id="Path_1152" d="M23 33h18v2H23z" class="cls-1" transform="translate(9 9.6)"/>
        <path id="Path_1153" d="M23 29h18v2H23z" class="cls-1" transform="translate(9 8.4)"/>
        <path id="Path_1154" d="M23 25h4v2h-4z" class="cls-1" transform="translate(6.828 7.2)"/>
        <path id="Path_1155" d="M29 25h12v2H29z" class="cls-1" transform="translate(10.08 7.2)"/>
        <path id="Path_1156" d="M23 43h2v2h-2z" class="cls-1" transform="translate(6.6 12.6)"/>
        <path id="Path_1157" d="M27 43h2v2h-2z" class="cls-1" transform="translate(7.8 12.6)"/>
        <path id="Path_1158" d="M31 43h2v2h-2z" class="cls-1" transform="translate(9 12.6)"/>
        <path id="Path_1159" d="M35 43h2v2h-2z" class="cls-1" transform="translate(10.2 12.6)"/>
        <path id="Path_1160" d="M39 43h2v2h-2z" class="cls-1" transform="translate(11.4 12.6)"/>
        <path id="Path_1161" d="M1 43h2v2H1z" class="cls-1" transform="translate(0 12.6)"/>
        <path id="Path_1162" d="M7 37h2v2H7z" class="cls-1" transform="translate(0 10.8)"/>
        <path id="Path_1163" d="M3 31h2v2H3z" class="cls-1" transform="translate(0 9)"/>
        <path id="Path_1164" d="M61 43h2v2h-2z" class="cls-1" transform="translate(18 12.6)"/>
        <path id="Path_1165" d="M55 37h2v2h-2z" class="cls-1" transform="translate(18 10.8)"/>
        <path id="Path_1166" d="M59 31h2v2h-2z" class="cls-1" transform="translate(18 9)"/>
    </g>
</svg>
