<svg xmlns="http://www.w3.org/2000/svg" width="114.429" height="80" viewBox="0 0 114.429 80">
    <defs>
        <style>
            .cls-1{fill:#2c3e90}
        </style>
    </defs>
    <g id="euro" transform="translate(0 -75.55)">
        <g id="Group_8" transform="translate(0 75.55)">
            <g id="Group_7">
                <path id="Path_1148" d="M114.269 119.435c-.41-2.962-3.463-5.332-9.183-7.063A65.042 65.042 0 0 0 88.226 110V85.69a2.128 2.128 0 0 0-.478-1.367c-.752-2.643-3.805-4.785-9.091-6.38a67.838 67.838 0 0 0-18.868-2.393 65.853 65.853 0 0 0-18.661 2.392c-4.124 1.276-9.069 3.646-9.069 7.724a4.2 4.2 0 0 0 .068.752l.251 10.39a27.264 27.264 0 1 0 12.1 47.941 67.766 67.766 0 0 0 14.606 1.595c1.162 6.312 14.833 9.205 27.593 9.205a65.323 65.323 0 0 0 18.684-2.438c4.147-1.276 9.069-3.668 9.069-7.747v-25.04a2.361 2.361 0 0 0-.161-.889zM42.5 82.295a61.549 61.549 0 0 1 17.317-2.21 63.734 63.734 0 0 1 17.545 2.21c4.944 1.5 6.015 3.053 6.015 3.372s-1.071 1.891-6.038 3.372a64.321 64.321 0 0 1-17.522 2.21A62.561 62.561 0 0 1 43.019 89.2c-4.9-1.413-6.266-2.985-6.38-3.486 0-.046 0-.068-.023-.068.023-.321 1.071-1.87 5.884-3.351zm41.173 9.069V97.2a1.844 1.844 0 0 0-.3 1.094c0 .3-1.071 1.868-6.038 3.372a64.5 64.5 0 0 1-17.545 2.21 65.189 65.189 0 0 1-15.517-1.709c-.068-.023-.114-.023-.182-.046a26.9 26.9 0 0 0-7.132-4.033l-.16-6.426a25.245 25.245 0 0 0 4.922 1.891 67.346 67.346 0 0 0 18.069 2.21 67.552 67.552 0 0 0 18.844-2.392 24.7 24.7 0 0 0 5.035-2.008zm-41.11 49.011a22.71 22.71 0 1 1-15.289-39.51 23.36 23.36 0 0 1 6.745 1 22.92 22.92 0 0 1 15.54 17.112 23.829 23.829 0 0 1 .456 4.58 22.657 22.657 0 0 1-7.452 16.818zm5.788.5a27.513 27.513 0 0 0 4.375-7.5c1.937.159 3.987.273 6.084.3v.41l.114 7.724a71.752 71.752 0 0 1-10.573-.933zm6.061-20.006c1.344.091 2.734.137 4.147.159 0 .046.023.114.023.16l.137 7.907q-2.427-.034-4.717-.205a28.009 28.009 0 0 0 .524-5.332 21.409 21.409 0 0 0-.114-2.688zm5.605-4.375h-.205c-2.187 0-4.306-.091-6.266-.228a27.013 27.013 0 0 0-4.079-8.476 82.063 82.063 0 0 0 10.322.661 67.838 67.838 0 0 0 18.866-2.392 29.29 29.29 0 0 0 5.013-2.051v6.038c-9.797.275-19.914 2.325-23.651 6.454zM63.07 120c.228-.638 1.891-2.119 6.562-3.441a62.558 62.558 0 0 1 16.314-1.937h.3a63.858 63.858 0 0 1 17.545 2.165c4.808 1.458 5.947 2.917 6.015 3.3v.023c-.023.342-1.162 1.914-6.22 3.418a63.351 63.351 0 0 1-17.34 2.142 64.331 64.331 0 0 1-16.542-1.96c-4.352-1.23-6.107-2.62-6.539-3.327a1.929 1.929 0 0 0-.095-.383zm46.8 25.36c0 .319-1.025 1.891-5.856 3.4a60.947 60.947 0 0 1-17.34 2.233 62 62 0 0 1-17.294-2.165c-4.831-1.481-5.81-3.008-5.81-3.349v-.046l-.114-6.585c5.423 2.757 14.469 4.01 22.763 4.01a67.211 67.211 0 0 0 18.8-2.392 26.554 26.554 0 0 0 4.853-2.005v6.9zm-.205-12.623c0 .319-1.048 1.868-5.97 3.372A62.926 62.926 0 0 1 86.22 138.3c-12.509 0-20.985-2.8-22.854-5.013l-.046-1.96-.091-5.218a26.541 26.541 0 0 0 5.2 1.982 68.662 68.662 0 0 0 17.771 2.144 68.2 68.2 0 0 0 18.616-2.324 26.077 26.077 0 0 0 5.036-2.005v5.856h.023c-.003.296-.208.638-.208.98z" class="cls-1" transform="translate(0 -75.55)"/>
            </g>
        </g>
        <g id="Group_10" transform="translate(14.081 112.828)">
            <g id="Group_9">
                <path id="Path_1149" d="M68.195 236.645a1.712 1.712 0 0 0-2.2-.991v-.017a8.717 8.717 0 0 1-9.294-2 5.625 5.625 0 0 1-1.213-1.555h8.782a1.708 1.708 0 1 0 0-3.417H54.236a6.912 6.912 0 0 1-.051-1.879h10.969a1.708 1.708 0 1 0 0-3.417h-9.96a10.07 10.07 0 0 1 1.486-2.016 8.719 8.719 0 0 1 9.294-1.965 1.7 1.7 0 1 0 1.23-3.178 12.138 12.138 0 0 0-12.95 2.751 11.742 11.742 0 0 0-2.819 4.425h-2.427a1.708 1.708 0 0 0 0 3.417h1.708a11.51 11.51 0 0 0 .034 1.879h-1.742a1.708 1.708 0 1 0 0 3.417h2.614a11.484 11.484 0 0 0 2.631 3.981 12.13 12.13 0 0 0 12.95 2.768 1.712 1.712 0 0 0 .992-2.203z" class="cls-1" transform="translate(-47.3 -215.4)"/>
            </g>
        </g>
    </g>
</svg>
