<svg xmlns="http://www.w3.org/2000/svg" width="113.456" height="80" viewBox="0 0 113.456 80">
    <defs>
        <style>
            .cls-1{fill:#2c3e90}
        </style>
    </defs>
    <g id="fast" transform="translate(0 -75.49)">
        <path id="Path_1145" d="M303.169 193.942L294 203.109l-5.87-5.87a3.655 3.655 0 0 0-5.169 5.169l8.454 8.454a3.655 3.655 0 0 0 5.169 0l11.752-11.752a3.655 3.655 0 1 0-5.169-5.169z" class="cls-1" transform="translate(-221.189 -92.088)"/>
        <path id="Path_1146" d="M50.313 82.921c-.043 0-.085-.006-.129-.006H26.67a3.324 3.324 0 0 0 0 6.648h16.394a39.826 39.826 0 0 0-9.428 22.625H14.348a3.324 3.324 0 1 0 0 6.648h19.287a39.807 39.807 0 0 0 9.429 22.625H3.324a3.324 3.324 0 0 0 0 6.648c.436 0 46.723 0 46.988-.006a39.985 39.985 0 0 0 63.143-32.59c0-32.605-36.926-51.283-63.143-32.59zm23.164 65.921a33.33 33.33 0 0 1-22.943-57.508c21.093-20.04 56.274-5.138 56.274 24.177a33.329 33.329 0 0 1-33.331 33.331z" class="cls-1"/>
        <circle id="Ellipse_7" cx="4.063" cy="4.063" r="4.063" class="cls-1" transform="translate(69.298 89.989)"/>
        <circle id="Ellipse_8" cx="4.063" cy="4.063" r="4.063" class="cls-1" transform="translate(69.298 132.907)"/>
        <path id="Path_1147" d="M416.254 238.868a4.063 4.063 0 1 0 4.063 4.063 4.063 4.063 0 0 0-4.063-4.063z" class="cls-1" transform="translate(-323.058 -127.542)"/>
        <circle id="Ellipse_9" cx="4.063" cy="4.063" r="4.063" class="cls-1" transform="rotate(-9.25 719.345 -235.56)"/>
    </g>
</svg>
