<svg id="wisdom" xmlns="http://www.w3.org/2000/svg" width="86.729" height="86.732" viewBox="0 0 86.729 86.732">
  <defs>
    <style>
      .cls-1 {
        fill: #fff;
      }
    </style>
  </defs>
  <path id="Path_1124" data-name="Path 1124" class="cls-1" d="M82.949,34.379a5.554,5.554,0,0,0-1,.1L75.6,25.149a6.112,6.112,0,0,0-1.176-4.981,5.714,5.714,0,0,0-4.485-2.2,5.579,5.579,0,0,0-1.461.216L50.371,13.937A4.252,4.252,0,0,0,43.2,14L20.892,21.257a4.186,4.186,0,0,0-4.521.87,4.521,4.521,0,0,0-1.156,4.594l-9.747,16.7a4.46,4.46,0,0,0-3.445,4.835,4.391,4.391,0,0,0,4.312,4.026A4.216,4.216,0,0,0,9.127,51.2L33.99,56.524a4.35,4.35,0,0,0,3.587,3.18,4.264,4.264,0,0,0,4.252-2.135L71.62,59.658c.03.091.049.187.084.275l-9.029,5.421a4.215,4.215,0,0,0-5.422-.211,4.548,4.548,0,0,0-1.343,5.426,4.284,4.284,0,0,0,4.856,2.5A4.43,4.43,0,0,0,64.157,68.7a4.651,4.651,0,0,0-.071-.728l9.62-5.777a4.174,4.174,0,0,0,2.015.537,4.319,4.319,0,0,0,3.81-2.356,4.6,4.6,0,0,0-.2-4.581l4.559-9.575A5.925,5.925,0,0,0,88.7,39.849,5.85,5.85,0,0,0,82.949,34.379ZM59.82,70.189A1.493,1.493,0,1,1,61.266,68.7,1.469,1.469,0,0,1,59.82,70.189ZM69.939,20.95a2.986,2.986,0,1,1-2.891,2.984A2.939,2.939,0,0,1,69.939,20.95ZM49.7,19.786a4.5,4.5,0,0,0,1.379-2.631l14.166,3.326A6.09,6.09,0,0,0,66.259,28.5a5.64,5.64,0,0,0,7.82-.4L79.3,35.76a5.957,5.957,0,0,0-1.9,3.02L51.452,37.333a4.339,4.339,0,0,0-1.743-1.194Zm0,20.561a1.446,1.446,0,1,1-1.446-1.492A1.469,1.469,0,0,1,49.7,40.347ZM46.811,14.982a1.493,1.493,0,1,1-1.446,1.492A1.469,1.469,0,0,1,46.811,14.982ZM23.3,23.6l19.26-6.267a4.374,4.374,0,0,0,4.253,3.612v15.2a4.277,4.277,0,0,0-1.167.652l-14.953.522a5.817,5.817,0,0,0-5.564-4.433,5.517,5.517,0,0,0-1.644.276l-1.07-4.578A4.543,4.543,0,0,0,23.3,23.6Zm1.83,12.266a2.986,2.986,0,1,1-2.891,2.984A2.939,2.939,0,0,1,25.128,35.871ZM19.346,23.934A1.493,1.493,0,1,1,17.9,25.426,1.469,1.469,0,0,1,19.346,23.934ZM6.336,49.3a1.493,1.493,0,1,1,1.446-1.492A1.469,1.469,0,0,1,6.336,49.3Zm2.189-5.334,8.594-14.719a4.191,4.191,0,0,0,2.228.657,3.806,3.806,0,0,0,.395-.042L20.9,34.816a6.028,6.028,0,0,0-1.551,4.039c0,.194.038.376.055.566L9.194,44.467a4.378,4.378,0,0,0-.669-.5Zm25.628,9.549L10.607,48.472a4.568,4.568,0,0,0,.065-.664,4.616,4.616,0,0,0-.071-.727l9.778-4.834a5.733,5.733,0,0,0,4.749,2.577,5.539,5.539,0,0,0,1.395-.2l7.839,8.483q-.115.194-.21.4Zm3.985,3.245a1.493,1.493,0,1,1,1.446-1.492A1.469,1.469,0,0,1,38.137,56.76Zm1.411-5.7a4.021,4.021,0,0,0-3.028.066L29.14,43.136A6,6,0,0,0,30.718,40.3l13.251-.464a4.073,4.073,0,0,0,.918,3.29Zm36.173,8.688a1.493,1.493,0,1,1,1.446-1.492A1.469,1.469,0,0,1,75.721,59.744Zm1.253-5.755a4.165,4.165,0,0,0-1.253-.213,4.344,4.344,0,0,0-4.047,2.9L42.41,54.622a4.5,4.5,0,0,0-.6-1.7l5.526-8.207a4.217,4.217,0,0,0,3.626-.867,4.513,4.513,0,0,0,1.627-3.456l24.763,1.38a5.913,5.913,0,0,0,3.479,4.115Zm5.974-10.658a2.986,2.986,0,1,1,2.891-2.984A2.939,2.939,0,0,1,82.949,43.331Z" transform="translate(-2.002 0.13)"/>
  <path id="Path_1125" data-name="Path 1125" class="cls-1" d="M6,52H8.984v2.984H6Z" transform="translate(-0.034 19.811)"/>
  <path id="Path_1126" data-name="Path 1126" class="cls-1" d="M6,48H8.984v2.984H6Z" transform="translate(-0.034 18.421)"/>
  <path id="Path_1127" data-name="Path 1127" class="cls-1" d="M8,50h2.984v2.984H8Z" transform="translate(0.95 18.827)"/>
  <path id="Path_1128" data-name="Path 1128" class="cls-1" d="M4,50H6.984v2.984H4Z" transform="translate(-1.018 18.827)"/>
  <path id="Path_1129" data-name="Path 1129" class="cls-1" d="M50,9h2.984v2.984H50Z" transform="translate(19.306 1.445)"/>
  <path id="Path_1130" data-name="Path 1130" class="cls-1" d="M50,5h2.984V7.984H50Z" transform="translate(19.306 -0.524)"/>
  <path id="Path_1131" data-name="Path 1131" class="cls-1" d="M52,7h2.984V9.984H52Z" transform="translate(19.809 0.46)"/>
  <path id="Path_1132" data-name="Path 1132" class="cls-1" d="M48,7h2.984V9.984H48Z" transform="translate(18.418 0.46)"/>
  <path id="Path_1133" data-name="Path 1133" class="cls-1" d="M14,6h2.984V8.984H14Z" transform="translate(3.325 -0.032)"/>
  <path id="Path_1134" data-name="Path 1134" class="cls-1" d="M14,2h2.984V4.984H14Z" transform="translate(3.325 -2)"/>
  <path id="Path_1135" data-name="Path 1135" class="cls-1" d="M16,4h2.984V6.984H16Z" transform="translate(4.213 -1.016)"/>
  <path id="Path_1136" data-name="Path 1136" class="cls-1" d="M12,4h2.984V6.984H12Z" transform="translate(2.918 -1.016)"/>
  <path id="Path_1137" data-name="Path 1137" class="cls-1" d="M27,60h2.984v2.984H27Z" transform="translate(9.096 23.748)"/>
  <path id="Path_1138" data-name="Path 1138" class="cls-1" d="M27,56h2.984v2.984H27Z" transform="translate(9.096 21.779)"/>
  <path id="Path_1139" data-name="Path 1139" class="cls-1" d="M29,58h2.984v2.984H29Z" transform="translate(9.984 22.764)"/>
  <path id="Path_1140" data-name="Path 1140" class="cls-1" d="M25,58h2.984v2.984H25Z" transform="translate(8.208 22.764)"/>
  <path id="Path_1141" data-name="Path 1141" class="cls-1" d="M58,53h2.984v2.984H58Z" transform="translate(22.761 20.303)"/>
  <path id="Path_1142" data-name="Path 1142" class="cls-1" d="M58,49h2.984v2.984H58Z" transform="translate(22.761 18.865)"/>
  <path id="Path_1143" data-name="Path 1143" class="cls-1" d="M60,51h2.984v2.984H60Z" transform="translate(23.745 19.319)"/>
  <path id="Path_1144" data-name="Path 1144" class="cls-1" d="M56,51h2.984v2.984H56Z" transform="translate(21.777 19.319)"/>
</svg>
