<svg xmlns="http://www.w3.org/2000/svg" xmlns:xlink="http://www.w3.org/1999/xlink" width="259.43" height="259.157" viewBox="0 0 259.43 259.157">
    <defs>
        <linearGradient id="linear-gradient" x1="1.13" x2=".236" y1="1.295" y2=".19" gradientUnits="objectBoundingBox">
            <stop offset="0" stop-color="#dae3fe"/>
            <stop offset="1" stop-color="#e9effd"/>
        </linearGradient>
        <linearGradient id="linear-gradient-2" x1="24.474" x2="21.636" y1="-.456" y2="5.933" gradientUnits="objectBoundingBox">
            <stop offset="0" stop-color="#09005d"/>
            <stop offset="1" stop-color="#1a0f91"/>
        </linearGradient>
        <linearGradient id="linear-gradient-3" x1="94.026" x2="95.033" y1=".533" y2=".533" gradientUnits="objectBoundingBox">
            <stop offset="0" stop-color="#febbba"/>
            <stop offset="1" stop-color="#ff928e"/>
        </linearGradient>
        <linearGradient id="linear-gradient-4" x1="31.531" x2="28.514" y1=".035" y2=".89" xlink:href="#linear-gradient-2"/>
        <linearGradient id="linear-gradient-5" x1="61.298" x2="54.278" y1="-2.166" y2="5.399" xlink:href="#linear-gradient-2"/>
        <linearGradient id="linear-gradient-6" x1="109.607" x2="110.621" y1=".551" y2=".551" xlink:href="#linear-gradient-3"/>
        <linearGradient id="linear-gradient-7" x1="21.194" x2="19.176" y1="-.033" y2=".81" xlink:href="#linear-gradient-2"/>
        <linearGradient id="linear-gradient-8" x1="13.293" x2="12.392" y1="-5.589" y2="-4.215" gradientUnits="objectBoundingBox">
            <stop offset="0" stop-color="#d9a600"/>
            <stop offset="1" stop-color="#d9a600"/>
        </linearGradient>
        <linearGradient id="linear-gradient-9" x1="18.108" x2="19.101" y1=".495" y2=".495" xlink:href="#linear-gradient-3"/>
        <linearGradient id="linear-gradient-10" x1="17.511" x2="19.491" y1="1.586" y2="4.27" xlink:href="#linear-gradient-3"/>
        <linearGradient id="linear-gradient-11" x1="130.572" x2="132.573" y1=".665" y2="-1.115" xlink:href="#linear-gradient-3"/>
        <linearGradient id="linear-gradient-12" x1="34.819" x2="32.555" y1="-14.077" y2="-10.576" gradientUnits="objectBoundingBox">
            <stop offset="0" stop-color="#ff928e"/>
            <stop offset="1" stop-color="#d9a600"/>
        </linearGradient>
        <linearGradient id="linear-gradient-13" x1="14.436" x2="15.438" y1=".528" y2=".528" xlink:href="#linear-gradient-3"/>
        <linearGradient id="linear-gradient-14" x1="36.096" x2="37.087" y1=".519" y2=".519" xlink:href="#linear-gradient-3"/>
        <linearGradient id="linear-gradient-15" x1="-9.2" x2="-8.996" y1="4.839" y2="6.022" xlink:href="#linear-gradient-2"/>
        <linearGradient id="linear-gradient-16" x1="13.016" x2="13.529" y1="-.062" y2="2.428" xlink:href="#linear-gradient-2"/>
        <linearGradient id="linear-gradient-17" x1="43.437" x2="44.437" y1=".5" y2=".5" xlink:href="#linear-gradient-3"/>
        <linearGradient id="linear-gradient-18" x1=".389" x2=".495" y1="-10.035" y2=".398" gradientUnits="objectBoundingBox">
            <stop offset="0" stop-color="#4f52ff"/>
            <stop offset="1" stop-color="#4042e2"/>
        </linearGradient>
        <linearGradient id="linear-gradient-19" x1="0" x2="1" y1=".5" y2=".5" xlink:href="#linear-gradient-3"/>
        <linearGradient id="linear-gradient-20" x1=".384" x2=".505" y1="-3.582" y2=".525" xlink:href="#linear-gradient-18"/>
        <linearGradient id="linear-gradient-21" x1="0" x2="1" y1=".5" y2=".5" xlink:href="#linear-gradient-2"/>
        <linearGradient id="linear-gradient-23" x1=".708" x2=".066" y1=".132" y2="1.227" xlink:href="#linear-gradient-2"/>
        <linearGradient id="linear-gradient-24" x1=".367" x2=".601" y1=".85" y2=".282" xlink:href="#linear-gradient-3"/>
        <linearGradient id="linear-gradient-25" x1="1.924" x2=".335" y1="-2.115" y2="1.087" gradientUnits="objectBoundingBox">
            <stop offset="0" stop-color="#b4002b"/>
            <stop offset="1" stop-color="#a10127"/>
        </linearGradient>
        <linearGradient id="linear-gradient-26" x1=".766" x2="11.383" y1=".225" y2="-10.741" xlink:href="#linear-gradient-2"/>
        <linearGradient id="linear-gradient-28" x1="12.523" x2="11.483" y1="3.015" y2="3.766" xlink:href="#linear-gradient-3"/>
        <linearGradient id="linear-gradient-29" x1="9.893" x2="10.662" y1="2.234" y2="3.128" xlink:href="#linear-gradient-2"/>
        <linearGradient id="linear-gradient-30" x1="50.787" x2="46.509" y1="8.296" y2="10.906" xlink:href="#linear-gradient-3"/>
        <linearGradient id="linear-gradient-31" x1="58.699" x2="57.47" y1="-888.587" y2="-874.255" xlink:href="#linear-gradient-2"/>
        <linearGradient id="linear-gradient-32" x1="104.496" x2="101.87" y1="-79.584" y2="-78.285" xlink:href="#linear-gradient-2"/>
        <linearGradient id="linear-gradient-33" x1="-59.102" x2="-59.087" y1="4.474" y2="8.118" xlink:href="#linear-gradient-2"/>
        <linearGradient id="linear-gradient-34" x1="-189.32" x2="-189.582" y1="1.164" y2="-.58" xlink:href="#linear-gradient-3"/>
        <linearGradient id="linear-gradient-35" x1="-113.541" x2="-113.514" y1="3.704" y2="7.135" xlink:href="#linear-gradient-2"/>
        <linearGradient id="linear-gradient-36" x1="-223.399" x2="-223.684" y1="1.13" y2="-.791" xlink:href="#linear-gradient-3"/>
        <linearGradient id="linear-gradient-37" x1=".262" x2=".562" y1="-.145" y2=".725" xlink:href="#linear-gradient-2"/>
        <linearGradient id="linear-gradient-38" x1="-965.272" x2="-963.891" y1="2.369" y2="1.878" xlink:href="#linear-gradient-18"/>
        <linearGradient id="linear-gradient-39" x1="-22.88" x2="-23.473" y1=".161" y2="1.632" gradientUnits="objectBoundingBox">
            <stop offset="0" stop-color="#2c3e90"/>
            <stop offset="1" stop-color="#4042e2"/>
        </linearGradient>
        <linearGradient id="linear-gradient-40" x1="-53.987" x2="-52.987" y1=".5" y2=".5" xlink:href="#linear-gradient-3"/>
        <linearGradient id="linear-gradient-41" x1="-27.458" x2="-26.458" y1=".5" y2=".5" xlink:href="#linear-gradient-3"/>
        <linearGradient id="linear-gradient-42" x1="-106.838" x2="-105.549" y1="1.029" y2=".222" xlink:href="#linear-gradient-3"/>
        <linearGradient id="linear-gradient-43" x1="-85.236" x2="-86.553" y1=".175" y2="1.493" xlink:href="#linear-gradient-3"/>
        <linearGradient id="linear-gradient-44" x1="1.637" x2=".754" y1="-2.121" y2="-.158" gradientUnits="objectBoundingBox">
            <stop offset="0" stop-color="#e1473d"/>
            <stop offset="1" stop-color="#e9605a"/>
        </linearGradient>
        <linearGradient id="linear-gradient-45" x1="-272.262" x2="-269" y1="2.763" y2=".44" xlink:href="#linear-gradient-3"/>
        <linearGradient id="linear-gradient-46" x1="-1.288" x2=".762" y1="3.145" y2=".112" xlink:href="#linear-gradient-18"/>
        <linearGradient id="linear-gradient-47" x1="-1.297" x2=".754" y1="3.157" y2=".125" xlink:href="#linear-gradient-18"/>
        <linearGradient id="linear-gradient-48" x1="-1.74" x2=".31" y1="3.813" y2=".78" xlink:href="#linear-gradient-18"/>
        <linearGradient id="linear-gradient-49" x1="-1.749" x2=".302" y1="3.825" y2=".793" xlink:href="#linear-gradient-18"/>
        <linearGradient id="linear-gradient-50" x1=".857" x2=".637" y1="-10.915" y2="-3.932" xlink:href="#linear-gradient-2"/>
        <linearGradient id="linear-gradient-51" x1=".211" x2=".464" y1="32.997" y2="4.261" xlink:href="#linear-gradient-18"/>
        <style>
            .cls-3{fill:#91b3fa}.cls-4{fill:#bdd0fb}.cls-18{fill:#febbba}.cls-22{fill:#7d97f4}.cls-24{fill:url(#linear-gradient-19)}
        </style>
    </defs>
    <g id="Group_3348" opacity="0.6" transform="translate(-453.526 -455)">
        <path id="Path_4016" fill="url(#linear-gradient)" d="M680.941 677.083a93 93 0 0 1-14.229 11.98c-46.416 33.3-101.338 23.6-113.011 21.225-17.237-3.5-50.555-10.268-74.643-38.6-36.444-42.857-30.769-110.378-2.5-154.949 5.171-8.153 32.484-53.4 88-60.659 33.6-4.392 72.759 4.466 101.12 28.226 59.528 49.88 55.29 150.637 15.263 192.777z"/>
        <g id="Group_3358" transform="translate(457.666 469.831)">
            <g id="Group_3352" transform="translate(0 1.688)">
                <g id="Group_3348-2">
                    <path id="Path_4017" d="M498.682 1360.873a.735.735 0 0 1-.431-.662c0-.963.013-1.942.049-2.91a.712.712 0 0 1 .758-.681c.979.047.646 1 .656 3.61a.711.711 0 0 1-.729.711.743.743 0 0 1-.303-.068z" class="cls-3" transform="translate(-498.25 -1289.687)"/>
                    <path id="Path_4018" d="M508.738 692.074c.309-1.824.7-3.658 1.15-5.45a.719.719 0 0 1 .887-.511c1.067.286.318.846-.593 6.222a.716.716 0 0 1-.842.578.736.736 0 0 1-.602-.839zm3.923-14.052c.682-1.728 1.446-3.461 2.244-5.09a.735.735 0 0 1 1.32.644c-.795 1.625-1.531 3.3-2.2 4.988a.735.735 0 0 1-1.365-.543zm6.732-12.932c1.02-1.54 2.115-3.059 3.257-4.514a.734.734 0 0 1 1.164.894c-1.118 1.426-2.192 2.914-3.191 4.423a.735.735 0 0 1-1.23-.803zm9.306-10.242a.713.713 0 0 1-.006-1.019c1.323-1.3 2.716-2.557 4.141-3.747.733-.612 1.69.5.958 1.107-1.4 1.166-2.762 2.4-4.058 3.671a.739.739 0 0 1-1.034-.013zm11.264-9.133a.708.708 0 0 1 .2-1c1.569-1 3.2-1.95 4.841-2.824a.729.729 0 0 1 .713 1.272c-1.61.857-3.207 1.788-4.744 2.768a.745.745 0 0 1-1.01-.216zm13.326-6.261a.739.739 0 0 1-.378-.395.706.706 0 0 1 .406-.931c1.748-.663 3.543-1.265 5.336-1.79a.746.746 0 0 1 .918.487.707.707 0 0 1-.478.9c-1.757.514-3.517 1.1-5.23 1.754a.741.741 0 0 1-.574-.026zm14.13-3.768a.739.739 0 0 1-.42-.537.708.708 0 0 1 .591-.827c1.851-.3 3.739-.525 5.611-.678a.743.743 0 0 1 .8.659.709.709 0 0 1-.655.778c-1.834.15-3.684.374-5.5.665a.745.745 0 0 1-.426-.061zm14.232-1.526a.712.712 0 0 1 .752-.688c1.879.083 3.782.242 5.656.471a.72.72 0 1 1-.155 1.431c-1.835-.224-3.7-.379-5.541-.461a.741.741 0 0 1-.711-.753zm45.71 18.918c-4.14-3.652-5.128-3.668-4.464-4.531a.735.735 0 0 1 1.024-.128c1.508 1.135 2.99 2.344 4.405 3.593a.719.719 0 1 1-.964 1.065zm-31.109-16.924a.719.719 0 0 1 .881-.519c1.829.46 3.665 1 5.458 1.6a.718.718 0 1 1-.448 1.365c-1.757-.587-3.557-1.113-5.349-1.564a.734.734 0 0 1-.541-.883zm19.236 8.418c-4.784-2.745-5.766-2.567-5.295-3.553a.746.746 0 0 1 .973-.332c1.711.815 3.407 1.7 5.042 2.642a.718.718 0 1 1-.72 1.243z" class="cls-3" transform="translate(-507.758 -633.471)"/>
                    <path id="Path_4019" d="M1859.839 905.235c-1.551-1.911-2.55-2.592-1.8-3.227a.74.74 0 0 1 1.032.082c1.684 1.912 2.542 2.688 1.8 3.267a.835.835 0 0 1-1.032-.122z" class="cls-3" transform="translate(-1731.95 -876.997)"/>
                </g>
                <g id="Group_3349" transform="translate(14.074 77.738)">
                    <path id="Path_4020" d="M2046.908 1477.611a.734.734 0 0 1-.425-.753c.118-.94.217-1.893.295-2.833a.714.714 0 0 1 .789-.646.74.74 0 0 1 .67.789c-.08.959-.181 1.932-.3 2.891a.715.715 0 0 1-.815.614.743.743 0 0 1-.214-.062z" class="cls-3" transform="translate(-1917.253 -1473.375)"/>
                    <path id="Path_4021" d="M760.082 1651.772c-1.826-.9-3.635-1.891-5.377-2.938a.722.722 0 0 1-.256-.992c.581-.955.93 0 6.271 2.644a.725.725 0 0 1 .34.969.746.746 0 0 1-.978.317zm8.725 2.895c.353-1.058.934-.189 6.677 1.25a.732.732 0 0 1 .543.877.719.719 0 0 1-.881.52c-1.965-.493-3.941-1.075-5.872-1.73a.731.731 0 0 1-.468-.917zm-22.264-11.519c-1.583-1.27-3.135-2.624-4.609-4.022a.714.714 0 0 1-.029-1.02c.783-.8.907.205 5.55 3.929a.717.717 0 0 1 .116 1.015.737.737 0 0 1-1.028.098zm38.15 15.868a.734.734 0 0 1-.428-.734.714.714 0 0 1 .8-.635c1.979.221 3.988.361 5.97.416a.741.741 0 0 1 .724.741.711.711 0 0 1-.739.7c-2.023-.056-4.073-.2-6.094-.425a.757.757 0 0 1-.233-.063zm15.82.031a.739.739 0 0 1-.426-.574.709.709 0 0 1 .634-.795c1.968-.212 3.951-.51 5.894-.886a.746.746 0 0 1 .869.569.708.708 0 0 1-.563.846c-1.983.383-4.007.687-6.016.9a.743.743 0 0 1-.392-.06zm15.385-3.39a.741.741 0 0 1-.388-.419.707.707 0 0 1 .44-.915c1.867-.632 3.729-1.35 5.535-2.135a.747.747 0 0 1 .97.371.707.707 0 0 1-.36.95c-1.843.8-3.743 1.534-5.648 2.179a.741.741 0 0 1-.547-.031zm14.212-6.626a.746.746 0 0 1-.317-.276.708.708 0 0 1 .226-.991c1.676-1.019 3.328-2.123 4.91-3.279a.742.742 0 0 1 1.025.156.709.709 0 0 1-.14 1.007c-1.614 1.18-3.3 2.307-5.011 3.347a.739.739 0 0 1-.693.036zm12.137-9.7c-.8-.8.215-.882 4.04-5.294a.734.734 0 0 1 1.12.947c-1.3 1.505-2.693 2.973-4.125 4.363a.739.739 0 0 1-1.035-.015zm10-11.929c-.962-.613.006-.9 2.739-6.059a.735.735 0 0 1 1.3.685c-.933 1.759-1.952 3.5-3.03 5.166a.732.732 0 0 1-1.009.206zm7-13.864a.728.728 0 0 1-.388-.906c.67-1.84 1.267-3.723 1.773-5.6a.721.721 0 0 1 .9-.5.734.734 0 0 1 .52.891c-.517 1.912-1.126 3.833-1.81 5.71a.723.723 0 0 1-.935.421c-.026.001-.045-.007-.063-.015z" class="cls-3" transform="translate(-733.245 -1594.19)"/>
                    <path id="Path_4022" d="M652.246 1845.31c-1.6-1.988-2.415-2.8-1.646-3.343.8-.567 1.154.425 2.788 2.461a.71.71 0 0 1-.113 1.011.743.743 0 0 1-1.029-.129z" class="cls-3" transform="translate(-650.309 -1807.708)"/>
                </g>
                <g id="Group_3351" transform="translate(19.128 18.072)">
                    <path id="Path_4023" d="M711.072 908.4l10.476-.551a46.6 46.6 0 0 0 10.582 10.406c-.3 10.043-1.037 10.725.008 11.158l11.687 4.834a.863.863 0 0 0 .974-.215l6.879-7.691a46.434 46.434 0 0 0 14.822.1l7.041 7.8a.881.881 0 0 0 .978.229l11.59-4.665a.832.832 0 0 0 .522-.833l-.741-10.333a44.258 44.258 0 0 0 10.381-10.239l10.482.7a.846.846 0 0 0 .844-.517l4.7-11.432a.85.85 0 0 0-.235-.963l-7.927-6.913a44.425 44.425 0 0 0-.153-14.6c7.469-6.8 8.447-6.741 8.008-7.763-5.041-11.2-4.645-12.091-5.792-12.031l-10.476.551a46.6 46.6 0 0 0-10.582-10.406c.3-10.037 1.037-10.725-.008-11.158-11.694-4.6-11.921-5.447-12.661-4.619l-6.879 7.691a46.419 46.419 0 0 0-14.822-.1c-6.951-7.387-6.974-8.447-8.019-8.026-11.388 4.818-12.193 4.382-12.112 5.5l.741 10.333A44.253 44.253 0 0 0 721 854.884c-10.02-.465-10.9-1.23-11.327-.186-4.45 11.393-5.327 11.647-4.469 12.4l7.927 6.913a44.436 44.436 0 0 0 .154 14.6c-7.444 6.781-8.448 6.736-8.008 7.763 5.044 11.195 4.648 12.09 5.795 12.026z" class="cls-3" transform="translate(-704.913 -828.728)"/>
                    <g id="Group_3350" transform="translate(41.439 40.809)">
                        <path id="Path_4024" d="M1152.746 1279.9a12.026 12.026 0 0 1 13.83-10.119 12.4 12.4 0 0 1 10.513 13.8 12.027 12.027 0 0 1-13.83 10.12 12.394 12.394 0 0 1-10.513-13.801zm10.661 12.735h.006zm2.872-20.717a9.865 9.865 0 0 0-11.358 8.311 10.177 10.177 0 0 0 8.634 11.337 9.877 9.877 0 0 0 11.358-8.311 10.179 10.179 0 0 0-8.634-11.332z" class="cls-4" transform="translate(-1152.633 -1269.643)"/>
                    </g>
                    <path id="Path_4025" d="M966.129 1123.579a32.484 32.484 0 0 1-4.736-2.682 1.085 1.085 0 0 1-.387-1.345 1.048 1.048 0 0 1 .093-.162 1.1 1.1 0 0 1 1.524-.264 30.407 30.407 0 0 0 5.51 2.979c14.615 6.045 31.239-.349 37.652-14.264q.246-.533.471-1.081c6.069-14.751-1.278-31.638-16.24-37.833-14.942-6.181-32.062.636-38.122 15.345-3.6 8.757-1.435 14.958-1.849 15.857a1.107 1.107 0 0 1-2.085-.309 30.389 30.389 0 0 1 2.4-17.552c11.231-24.371 46.974-23.374 57.687 1.585a30.412 30.412 0 0 1 .241 23.749q-.244.593-.51 1.172a30.307 30.307 0 0 1-16.363 15.5 31.726 31.726 0 0 1-24.1-.176q-.599-.248-1.186-.519z" class="cls-4" transform="translate(-925.114 -1042.723)"/>
                </g>
            </g>
            <g id="Group_3357" transform="translate(132.558)">
                <path id="Path_4026" d="M2026.747 745.46a25.536 25.536 0 0 0 6.3 5.361l.118 5.856c.013.65.569.4 7.025 2.607.6.193.531-.365 4.05-4.853a25.534 25.534 0 0 0 8.245-.67l4.227 4.06c.47.451.684-.12 6.81-3.124a.481.481 0 0 0 .258-.5l-.826-5.8a25.522 25.522 0 0 0 5.361-6.3c5.594-.229 6.109.157 6.3-.451 2.021-6.663 2.495-6.844 1.989-7.224l-4.684-3.517a25.525 25.525 0 0 0-.67-8.245l4.061-4.227c.45-.469-.12-.684-3.124-6.81-.284-.557-.61-.12-6.3.569a25.525 25.525 0 0 0-6.3-5.361l-.118-5.856c-.013-.651-.569-.4-7.025-2.607-.594-.192-.514.343-4.05 4.853a25.523 25.523 0 0 0-8.245.67l-4.227-4.06a.482.482 0 0 0-.553-.081l-6.257 3.205a.481.481 0 0 0-.257.5l.826 5.8a25.53 25.53 0 0 0-5.361 6.3c-5.594.229-6.109-.157-6.3.451-2.02 6.66-2.495 6.843-1.989 7.224l4.684 3.517a25.539 25.539 0 0 0 .67 8.245c-3.794 4.117-4.434 4.209-4.142 4.78l3.205 6.257c.287.559.638.116 6.299-.569z" class="cls-3" transform="translate(-2007.939 -690.645)"/>
                <g id="Group_3356">
                    <g id="Group_3353" transform="translate(31.043 30.845)">
                        <path id="Path_4027" d="M2265.859 955.357a7.336 7.336 0 1 1 6.846 7.795 7.344 7.344 0 0 1-6.846-7.795zm6.917 6.7h.007zm-4.735-6.563a5.157 5.157 0 0 0 4.805 5.472 5.15 5.15 0 1 0-4.805-5.472z" class="cls-4" transform="translate(-2265.843 -948.496)"/>
                    </g>
                    <g id="Group_3354">
                        <path id="Path_4028" d="M1939.9 1109.369c-.282-.944-.53-1.912-.738-2.878a.729.729 0 0 1 .559-.866c.99-.213.849.893 1.575 3.327a.729.729 0 1 1-1.4.417z" class="cls-3" transform="translate(-1938.337 -1060.214)"/>
                        <path id="Path_4029" d="M1930.443 651.8a38.877 38.877 0 0 1 .715-5.961.729.729 0 0 1 1.429.286c-1.043 5.219-.229 6.487-1.447 6.434a.728.728 0 0 1-.697-.759zm4.16-14.221a.729.729 0 0 1-.336-.974 38.44 38.44 0 0 1 3.043-5.177.729.729 0 0 1 1.2.835 36.892 36.892 0 0 0-2.927 4.98.741.741 0 0 1-.983.339zm9.418-12.15a.729.729 0 0 1-.169-1.216 38.7 38.7 0 0 1 4.851-3.536.729.729 0 1 1 .764 1.241 37.214 37.214 0 0 0-4.667 3.4.729.729 0 0 1-.779.115zm13.463-7.407a.729.729 0 0 1 .091-1.359 38.2 38.2 0 0 1 5.862-1.3.729.729 0 1 1 .2 1.444 36.715 36.715 0 0 0-5.637 1.253.726.726 0 0 1-.516-.035zm14.885-2.144a.729.729 0 0 1 .806-.642 38.6 38.6 0 0 1 5.9 1.137.729.729 0 0 1-.387 1.405 37.072 37.072 0 0 0-5.672-1.094.729.729 0 0 1-.647-.803z" class="cls-3" transform="translate(-1930.442 -615.234)"/>
                        <path id="Path_4030" d="M2543.955 670.27c-2.2-1.517-3.171-1.674-2.678-2.525a.722.722 0 0 1 1-.265c.85.492 1.694 1.027 2.51 1.589a.729.729 0 0 1-.828 1.2z" class="cls-3" transform="translate(-2484.626 -662.553)"/>
                    </g>
                    <g id="Group_3355" transform="translate(14.882 29.766)">
                        <path id="Path_4031" d="M2736.835 940.527c-.34-2.662-.87-3.481.094-3.681a.729.729 0 0 1 .861.566c.2.962.365 1.948.49 2.93a.729.729 0 0 1-1.446.185z" class="cls-3" transform="translate(-2676.667 -936.831)"/>
                        <path id="Path_4032" d="M2208.995 1101.106c.38-1.15 1.242.034 6.436.9a.729.729 0 0 1-.24 1.438 38.4 38.4 0 0 1-5.733-1.418.729.729 0 0 1-.463-.92zm14.98 2.073a.729.729 0 0 1 .667-.786c5.292-.435 6.2-1.545 6.487-.364a.729.729 0 0 1-.538.88 38.227 38.227 0 0 1-5.83.937.728.728 0 0 1-.786-.667zm14.585-3.97c-.569-1.072.87-.867 5.1-4.025a.729.729 0 0 1 .872 1.168 38.653 38.653 0 0 1-4.987 3.159.729.729 0 0 1-.985-.302zm11.854-9.387c-.945-.766.464-1.14 3.118-5.7a.729.729 0 0 1 1.26.733 38.559 38.559 0 0 1-3.354 4.861.729.729 0 0 1-1.024.106zm6.717-14.186c1.441-5.106.721-6.353 1.929-6.205a.728.728 0 0 1 .636.811 38.58 38.58 0 0 1-1.162 5.79.729.729 0 1 1-1.4-.4z" class="cls-3" transform="translate(-2198.061 -1057.147)"/>
                        <path id="Path_4033" d="M2093.951 1347.218c-.83-.535-1.648-1.108-2.433-1.7a.729.729 0 0 1-.139-1.021c.613-.807 1.223.121 3.362 1.5a.729.729 0 1 1-.79 1.225z" class="cls-3" transform="translate(-2091.231 -1306.489)"/>
                    </g>
                    <path id="Path_4034" d="M2160.391 865.495a1.094 1.094 0 1 1 1.057-1.914 15.9 15.9 0 0 0 15.2.392c12.526-6.418 11.045-24.907-2.365-29.23A15.9 15.9 0 0 0 2155 843.2c-3.335 7.237.435 11-1.872 11.537a1.093 1.093 0 0 1-1.312-.818 18.061 18.061 0 1 1 12.053 13.117 18.181 18.181 0 0 1-3.478-1.541z" class="cls-4" transform="translate(-2130.903 -811.744)"/>
                </g>
            </g>
        </g>
        <g id="Group_3379" transform="translate(453.895 540.665)">
            <g id="Group_3364" transform="translate(58.117)">
                <path id="Path_4035" fill="url(#linear-gradient-2)" d="M1449.807 3070.794s-.61 3.269-.924 6.508a2.233 2.233 0 0 0 2.113 2.44c4.314.221 13.544.659 16.858.542a.727.727 0 0 0 .649-.989 1.628 1.628 0 0 0-.824-.885l-15.184-7.155z" transform="translate(-1415.232 -2914.352)"/>
                <path id="Path_4036" fill="url(#linear-gradient-3)" d="M1454.049 3044.392l.427 3.92s2.66 1.269 4.5-.114l-1.065-4.375z" transform="translate(-1419.93 -2889.877)"/>
                <path id="Path_4037" fill="url(#linear-gradient-4)" d="M1346.143 2253.417c-.211 1.021-1.564 51.028 3.568 73.493a.761.761 0 0 1-.455.881 13.252 13.252 0 0 1-4.363.843 1.31 1.31 0 0 1-1.291-.953c-1.479-5.215-8.553-31.34-9.271-56.238-.8-27.822.009-.947.009-.947l.79-17.186z" transform="translate(-1310.972 -2172.531)"/>
                <path id="Path_4038" fill="url(#linear-gradient-5)" d="M1250.619 3087.442a23.562 23.562 0 0 0-1.87 6.028 1.363 1.363 0 0 0 1.183 1.643c1.424.154 3.616.355 5.374.359a1.358 1.358 0 0 0 1.359-1.5 11.453 11.453 0 0 0-2.615-6.309z" transform="translate(-1233.604 -2929.458)"/>
                <path id="Path_4039" fill="url(#linear-gradient-6)" d="M1261.032 3031.029l1.029 5.933a3.83 3.83 0 0 0 3.2.25l-.458-6.377z" transform="translate(-1244.777 -2878.091)"/>
                <path id="Path_4040" fill="url(#linear-gradient-7)" d="M1217.778 2243.75c-4.624 26.347.326 65.231 2.048 72.849a1.185 1.185 0 0 0 .949.909 7.957 7.957 0 0 0 3.422-.1 1.086 1.086 0 0 0 .79-.993c.3-6.143.226-43.87 4.442-58.74a3.389 3.389 0 0 1 1.324-1.856l7.961-5.547.693-9.081z" transform="translate(-1203.783 -2161.531)"/>
                <g id="Group_3359" transform="translate(12.552 12.54)">
                    <path id="Path_4041" fill="url(#linear-gradient-8)" d="M1250.816 1711.761c-13.1-.342-27.595 3.178-27.595 3.178-4.123 22.754-1.151 49.072-1.151 49.072 10.119 2.757 21.6-1.42 21.6-1.42 1.777-9.51 9.9-36.245 9.9-36.245a43.166 43.166 0 0 0 16.068-4.931 28.1 28.1 0 0 1-5.442-11.668 43.965 43.965 0 0 1-13.38 2.014z" transform="translate(-1221.033 -1691.817)"/>
                    <path id="Path_4042" fill="url(#linear-gradient-9)" d="M1712.912 1517.044a2.507 2.507 0 0 0-2.909-.847c-2.006 8.127-12.18 14.635-22.6 17.764a28.1 28.1 0 0 0 5.442 11.668c17.334-9.529 20.067-28.585 20.067-28.585z" transform="translate(-1644.239 -1516.032)"/>
                </g>
                <g id="Group_3360" transform="translate(78.346)">
                    <path id="Path_4043" fill="url(#linear-gradient-10)" d="M1934.449 1394.493c.131.429-1.436 1.067-2.337-.693-.024-.84-.5-4.44.008-5.12a66.987 66.987 0 0 1 7.928-8.132 1.232 1.232 0 0 1 .138 1.714l-2.537 2.593a12.169 12.169 0 0 1 1.439 2.914 3.522 3.522 0 0 1-.376 2.588c-.448.79-1.06 1.817-1.636 2.62a3.476 3.476 0 0 1-2.627 1.516z" transform="translate(-1931.886 -1380.549)"/>
                    <path id="Path_4044" fill="url(#linear-gradient-11)" d="M1952.239 1445.312l-2.308 1.919-.737 1.926 2.02 2.284a26.339 26.339 0 0 1 1.241-4.652c.518-.826.257-1.23-.216-1.477z" transform="translate(-1947.592 -1439.318)"/>
                </g>
                <path id="Path_4045" fill="url(#linear-gradient-12)" d="M1108.072 1778.581l-4.905-12.736s-12.319 8.2-14.432 18.724a28.977 28.977 0 0 1 10.613 2.953c.952-4.97 8.724-8.941 8.724-8.941z" transform="translate(-1088.427 -1730.183)"/>
                <path id="Path_4046" fill="url(#linear-gradient-13)" d="M1115.642 1974.2s-13.816 7.635-18.39.959a5.212 5.212 0 0 1-.917-4.059 28.974 28.974 0 0 0-10.613-2.953 14.554 14.554 0 0 0 1.486 9.992c7.98 14.935 30.219-.533 30.219-.533z" transform="translate(-1085.415 -1913.762)"/>
                <path id="Path_4047" fill="url(#linear-gradient-14)" d="M1358.244 1615.206l-4.284 12.018a.434.434 0 0 0 .193.525 9.8 9.8 0 0 0 10.172-.587 2.046 2.046 0 0 0 .956-1.452l1.45-10.423z" transform="translate(-1329.081 -1593.487)"/>
                <g id="Group_3361" transform="translate(21.292 4.37)">
                    <path id="Path_4048" d="M1394.592 1495.5s4.5 8.662 3.876 12.138-6.292 3.172-11.22.3l-3.374-9.339z" class="cls-18" transform="translate(-1377.543 -1489.235)"/>
                    <path id="Path_4049" fill="url(#linear-gradient-15)" d="M1325.432 1441.9a.355.355 0 0 0 .16-.518 9.275 9.275 0 0 1-1.248-2.717s-.818-.535 2.107-1.206 7.286-1.713 8.225-4.188c.915-2.413-1.37-8.525-5.154-3.708a.355.355 0 0 1-.563 0c-.605-.8-2.2-2.474-4.447-1.492a3.36 3.36 0 0 0-2.331 3.224.353.353 0 0 1-.422.358 4.1 4.1 0 0 0-4.8 2.184c-1 2.136-.374 3.357.2 3.957a.354.354 0 0 1-.157.587 2.131 2.131 0 0 0-1.527 2.418c.1 2.254 2.623 2.079 3.341 1.984a.356.356 0 0 1 .314.115c.608.686 3.351 3.6 6.346 3.979a.358.358 0 0 0 .38-.47l-1.262-3.784a.357.357 0 0 1 .2-.441z" transform="translate(-1315.464 -1427.764)"/>
                    <path id="Path_4050" d="M1394.335 1575.23s-3.239-2.267-3.495-.386 2.909 2.756 4.488 2.069z" class="cls-18" transform="translate(-1383.85 -1560.553)"/>
                </g>
                <g id="Group_3363" transform="translate(27.373 44.039)">
                    <g id="Group_3362">
                        <path id="Path_4051" fill="url(#linear-gradient-16)" d="M1381.19 1884.82l7.526-26.283a.766.766 0 0 1 .648-.552c1.364-.159 5.315-.606 9.877-.992a112.094 112.094 0 0 1 15.69-.521.769.769 0 0 1 .629 1.106c-2.169 4.387-11.089 22.234-15.556 28.08a.772.772 0 0 1-.621.3l-17.462-.162a.769.769 0 0 1-.731-.976z" transform="translate(-1381.16 -1856.353)"/>
                        <path id="Path_4052" fill="url(#linear-gradient-17)" d="M1394.014 2007.451s-1.048-4.311-.625-5.841 1.242-3.5 3.974-3.059a39.963 39.963 0 0 1 5.953 1.587 1.563 1.563 0 0 1-2.239 1.349l1.287 1s-.184 1.595-1.937.743l1.2 1.321a1.4 1.4 0 0 1-2.043.47c-1.293-.843-1.912 2.949-5.57 2.43z" transform="translate(-1392.166 -1985.334)"/>
                    </g>
                    <path id="Path_4053" d="M1571.1 1926.381a2.209 2.209 0 1 0 2.209-2.209 2.209 2.209 0 0 0-2.209 2.209z" class="cls-3" transform="translate(-1553.517 -1917.895)"/>
                    <path id="Path_4054" d="M1466.479 1882.866l-.563-.167 1.532-5.2a2.368 2.368 0 0 1 1.783-1.659c4.857-1.014 17.649-1.22 18.191-1.229l.009.587c-.132 0-13.278.214-18.08 1.217a1.782 1.782 0 0 0-1.34 1.251z" class="cls-3" transform="translate(-1458.072 -1872.923)"/>
                </g>
            </g>
            <g id="Group_3365" transform="translate(0 121.626)">
                <path id="Path_4055" d="M465.618 2758.484c-.8 1.187-3.991 28.066-4.49 37.993a1.174 1.174 0 0 0 1.175 1.231 1.176 1.176 0 0 0 1.162-1l5.832-37.374z" class="cls-22" transform="translate(-460.792 -2752.573)"/>
                <path id="Path_4056" d="M750.553 2758.484c.8 1.187 3.991 28.066 4.49 37.993a1.174 1.174 0 0 1-1.176 1.231 1.176 1.176 0 0 1-1.162-1l-5.832-37.374z" class="cls-22" transform="translate(-720.09 -2752.573)"/>
                <path id="Path_4057" d="M457.511 2698.439v.293a4 4 0 0 0 4.072 3.877l26.957.458a4.03 4.03 0 0 0 4.219-3.658l.014-.268a3.981 3.981 0 0 0-4.063-4.031l-26.969-.483a4.015 4.015 0 0 0-4.23 3.812z" class="cls-22" transform="translate(-457.508 -2694.626)"/>
            </g>
            <g id="Group_3369" transform="translate(8.006 41.735)">
                <g id="Group_3366" transform="translate(40.875 117.922)">
                    <path id="Path_4058" d="M994.013 3150.715c-4.792 0-6.912-.411-7.86-.786a1.818 1.818 0 0 0 1.771 1.409h16.953a.825.825 0 0 0 .795-1.042c-1.933.155-6.037.419-11.659.419z" class="cls-3" transform="translate(-986.105 -3145.818)"/>
                    <path id="Path_4059" fill="url(#linear-gradient-18)" d="M1005.2 3109.995a.8.8 0 0 0-.139-.289c-1.291-1.649-3.885-4.238-7.414-4.188-5.17.073-6.972.634-10.989.032l-.948 3.141a1.8 1.8 0 0 0-.029.937c.948.375 3.068.786 7.86.786 5.619 0 9.723-.264 11.659-.419z" transform="translate(-985.63 -3105.517)"/>
                </g>
                <path id="Path_4060" d="M997.866 3069.292l-1.163 3.957a6.841 6.841 0 0 0 4.844.231l.445-3.428z" class="cls-24" transform="translate(-954.804 -2954.723)"/>
                <g id="Group_3367" transform="translate(69.801 112.203)">
                    <path id="Path_4061" d="M1324.018 3056.722c-3.736 3-5.644 4.011-6.617 4.313a1.816 1.816 0 0 0 2.258-.017l13.215-10.618a.822.822 0 0 0-.03-1.306c-1.408 1.332-4.444 4.106-8.826 7.628z" class="cls-3" transform="translate(-1315.62 -3048.598)"/>
                    <path id="Path_4062" fill="url(#linear-gradient-20)" d="M1315.382 3044.224a.8.8 0 0 0-.288-.137c-2.034-.47-5.671-.854-8.391 1.395-3.984 3.294-5.04 4.858-8.547 6.907l1.219 3.031a1.783 1.783 0 0 0 .562.745c.973-.3 2.882-1.312 6.617-4.313 4.384-3.522 7.419-6.297 8.828-7.628z" transform="translate(-1298.157 -3043.727)"/>
                </g>
                <path id="Path_4063" fill="url(#linear-gradient-21)" d="M686.253 2582.273s28.69 2.343 34.576 5.113-4.8 41.6-4.8 41.6-1.6.771-5.167-.337c0 0 3.656-28.656.935-34.87l-31.067-5.079z" transform="translate(-668.076 -2512.781)"/>
                <path id="Path_4064" d="M1267.358 3061.785c.266.242 2.851 5.455 2.851 5.455s2.877-.622 3.464-2.443l-2.589-4.7z" class="cls-24" transform="translate(-1200.408 -2946.375)"/>
                <path id="Path_4065" fill="url(#linear-gradient-23)" d="M544.907 2579.683a14.528 14.528 0 0 0-.9 5.24 7.865 7.865 0 0 0 7.506 7.7l33.916 1.547a1.627 1.627 0 0 1 1.5 1.223c.8 3.083 4.693 12.55 23.736 31.44a1.535 1.535 0 0 0 1.9.207l2.711-1.712a.624.624 0 0 0 .205-.843l-19.748-33.723a7.642 7.642 0 0 0-4.644-3.444l-28.907-7.389z" transform="translate(-544.009 -2510.43)"/>
                <path id="Path_4066" fill="url(#linear-gradient-24)" d="M842.9 2010.541s-3.633 6.424-7.338 9.536l7.657 4.272s1.725-6.8 5.667-8.792z" transform="translate(-808.573 -1993.966)"/>
                <path id="Path_4067" fill="url(#linear-gradient-25)" d="M547.055 2146.4s9.156 2.231 17.9 0c0 0 12.229-16.439 16.96-20.914 0 0 7.547 11.909 24.344 13.6l.937-2.094s-13.373-6.164-17.49-15.636-5.77-13.512-9.516-15.983c-2.333-1.539-3.729-2.59-4.451-3.164a1.2 1.2 0 0 0-1.372-.087c-3.977 2.417-22.68 15.226-27.312 44.278z" transform="translate(-546.773 -2076.906)"/>
                <path id="Path_4068" fill="url(#linear-gradient-26)" d="M868.159 2263.641a.585.585 0 0 1-.466-.23 36.522 36.522 0 0 1-4.607-8.169.587.587 0 0 1 1.1-.421 36.007 36.007 0 0 0 4.443 7.875.587.587 0 0 1-.466.945z" transform="translate(-833.518 -2215.295)"/>
                <path id="Path_4069" d="M1175.762 2450.133l1.891-.5 5.741-1.329a2.663 2.663 0 0 1 2.018.34l4.936 3.105-13.631-.022z" class="cls-24" transform="translate(-1117.289 -2391.146)"/>
                <g id="Group_3368" transform="translate(24.876)">
                    <path id="Path_4070" fill="url(#linear-gradient-28)" d="M876.37 1906.466s3.531 5.87 4.144 9.114 1.6 5.272-2.1 6.428a8.1 8.1 0 0 1-9.277-3.335s-3.363-4.66-3.028-6.795 10.261-5.412 10.261-5.412z" transform="translate(-861.155 -1899.524)"/>
                    <path id="Path_4071" fill="url(#linear-gradient-29)" d="M821.742 1848.1l.478-.063s-2.5-3.778-.864-4.715 8.3-3.237 9.461-5.863a4.56 4.56 0 0 0-2.566-5.988.257.257 0 0 0-.308.162l-.118.319a.259.259 0 0 1-.48.014.258.258 0 0 0-.469-.01c-.357.787-1.426 2.13-4.632 3.169-4.549 1.475-7.383 3.768-7.034 7a.259.259 0 0 1-.37.263c-.372-.165-.936-.19-1.59.526-1.138 1.245-.247 3.969 2.863 5.9a.257.257 0 0 1 .042.413c-.465.4-1.12 1.286.984 2.078 2.152.81 3.326.536 3.76.362a.259.259 0 0 0 .159-.291l-.553-2.832a.259.259 0 0 1 .22-.306z" transform="translate(-812.773 -1831.461)"/>
                    <path id="Path_4072" fill="url(#linear-gradient-30)" d="M875.969 1990.266s-1.558-3.841-3.194-2.491 1.512 4.335 2.966 4.295z" transform="translate(-866.804 -1973.046)"/>
                </g>
            </g>
            <g id="Group_3372" transform="translate(59.974 75.795)">
                <g id="Group_3370" transform="translate(0 26.584)">
                    <path id="Path_4073" fill="url(#linear-gradient-31)" d="M1106.724 2489.309h.067l29.12-.029a1.3 1.3 0 1 0 0-2.6l-29.12.029a1.3 1.3 0 0 0-.064 2.6z" transform="translate(-1105.486 -2486.678)"/>
                </g>
                <g id="Group_3371" transform="translate(29.299)">
                    <path id="Path_4074" fill="url(#linear-gradient-32)" d="M1434.446 2200.151l-.03.06-12.253 26.417a1.3 1.3 0 1 0 2.361 1.094l12.252-26.417a1.3 1.3 0 0 0-2.331-1.154z" transform="translate(-1422.042 -2199.455)"/>
                </g>
            </g>
            <g id="Group_3376" transform="translate(176.927 8.019)">
                <g id="Group_3373" transform="translate(20.677 74.152)">
                    <path id="Path_4075" fill="url(#linear-gradient-33)" d="M2610.772 3108.311a41.18 41.18 0 0 1 .5 4.314 1.857 1.857 0 0 1-1.674 1.961c-3.465.336-11.351.957-16.386.23a.845.845 0 0 1-.464-1.454 26.157 26.157 0 0 1 15.344-6.52z" transform="translate(-2592.474 -3029.234)"/>
                    <path id="Path_4076" fill="url(#linear-gradient-34)" d="M2750.14 3056.477l-1.751 4.293a1.43 1.43 0 0 1-1.469.887 7.776 7.776 0 0 1-1.431-.277 1.88 1.88 0 0 1-1.25-2.338l1.322-4.422z" transform="translate(-2730.12 -2981.846)"/>
                    <path id="Path_4077" fill="url(#linear-gradient-35)" d="M3083.61 3159.651a18.383 18.383 0 0 0-4.874 6.7 1.6 1.6 0 0 0 1.52 2.126h7.218a1.7 1.7 0 0 0 1.683-1.99c-.457-2.601-1.786-6.825-5.547-6.836z" transform="translate(-3033.644 -3077.155)"/>
                    <path id="Path_4078" fill="url(#linear-gradient-36)" d="M3126.539 3113.141s-.708 3.136-1.253 5.209a.663.663 0 0 1-.866.451 6.039 6.039 0 0 0-2.627-.477.511.511 0 0 1-.563-.51l-.068-5.208z" transform="translate(-3072.228 -3034.464)"/>
                    <path id="Path_4079" fill="url(#linear-gradient-37)" d="M2768.556 2276.454l-21.334 65.086s4.092 2.68 6.042 2.568l25.34-52.307s4.435 32.23 2.286 55.368l7.258.553s11.8-59.131 2.863-79.383z" transform="translate(-2732.898 -2268.34)"/>
                    <path id="Path_4080" fill="url(#linear-gradient-38)" d="M3074.657 2447.27h.026a.207.207 0 0 0 .179-.231l-.828-6.572a.207.207 0 0 0-.41.052l.828 6.572a.206.206 0 0 0 .205.179z" transform="translate(-3029.089 -2424.371)"/>
                </g>
                <path id="Path_4081" fill="url(#linear-gradient-39)" d="M2730.877 1737.226s17.285 1.535 14.84 13.851a167.892 167.892 0 0 1 14.022 39.162 1.245 1.245 0 0 1-1.01 1.48l-28.785 4.928a1.549 1.549 0 0 1-1.761-1.139l-6.878-26.581-2.68 12.359-8.516-2.219 7.169-36.315s.999-5.298 13.599-5.526z" transform="translate(-2678.543 -1712.232)"/>
                <path id="Path_4082" d="M2803.865 1954.672a.213.213 0 0 0 .046 0 .215.215 0 0 0 .164-.255l-2.4-11.018a.214.214 0 0 0-.419.091l2.4 11.017a.215.215 0 0 0 .209.165z" class="cls-3" transform="translate(-2761.251 -1899.165)"/>
                <path id="Path_4083" fill="url(#linear-gradient-40)" d="M2789.873 2235.238a4.109 4.109 0 0 1 2.972-.387l2 .5a.725.725 0 0 0 .9-.623l2.072-18.447c2.592 1.23 6.331 1.084 7.563.993l-4.771 21.747h-16.692z" transform="translate(-2745.521 -2146.947)"/>
                <path id="Path_4084" fill="url(#linear-gradient-41)" d="M2369.078 1865.827l.5-1.677a3.316 3.316 0 0 1 1.939-2.122l9.125-3.67s.138-1.17-1.928-1.965a2.746 2.746 0 0 1-1.583-3.109s2.823 1.287 6.954 3.329a9.671 9.671 0 0 1 4.392 4.781l20.677 25.207-2.428 1.668a6.481 6.481 0 0 1-9.4-2.306l-11.2-21.48a41.756 41.756 0 0 1-17.048 1.344z" transform="translate(-2369.078 -1817.548)"/>
                <g id="Group_3375" transform="translate(26.788)">
                    <path id="Path_4085" fill="url(#linear-gradient-42)" d="M2820.03 1608.464l5.316 14.879s-4.708 3.681-8.143 2.436l-2.679-8.529s2.046-10.425 5.506-8.786z" transform="translate(-2800.083 -1595.229)"/>
                    <g id="Group_3374">
                        <path id="Path_4086" fill="url(#linear-gradient-43)" d="M2702.58 1523.422c0 .229 5.121 14.5 5.121 14.5l8.084-3.1-2.844-14.244s-10.361-.994-10.361 2.844z" transform="translate(-2698.501 -1515.531)"/>
                        <path id="Path_4087" fill="url(#linear-gradient-44)" d="M2671.53 1475.7l2.084 7.381a1.077 1.077 0 0 1 .041.288c0 .6-.148 2.674-2.259 2.392-1.915-.256-3.666-.461-4.779.064a1.071 1.071 0 0 0-.552 1.331 46.292 46.292 0 0 0 2.912 6.572 1.068 1.068 0 0 0 1.374.44 34.53 34.53 0 0 0 6.932-4.077 1.072 1.072 0 0 0 .379-1.029c-.354-1.888-1.41-7.631-1.456-9.277-.043-1.545 1.689-2.724 2.453-3.167a1.055 1.055 0 0 0 .5-.666 2.777 2.777 0 0 0-2.427-3.741 1.072 1.072 0 0 1-.871-1.276 2.782 2.782 0 0 0-2.093-3.583 3.925 3.925 0 0 0-4.474 1.786 1.071 1.071 0 0 1-1.328.354.848.848 0 0 0-.95.17 1.056 1.056 0 0 1-1.544-.235 3.2 3.2 0 0 0-3.943-1.3c-3.652 1.182-3.478 5.393-2.139 7.682s5.226.783 7.066-.734c1.4-1.153 3.53-.463 4.471-.066a1.062 1.062 0 0 1 .603.691z" transform="translate(-2658.508 -1467.183)"/>
                        <path id="Path_4088" fill="url(#linear-gradient-45)" d="M2845.668 1572.565s-2.161-4.089-.732-5.373 3.851-1.074 3.786 2.124c-.081 3.977-3.054 3.249-3.054 3.249z" transform="translate(-2827.238 -1557.268)"/>
                    </g>
                </g>
                <path id="Path_4089" d="M2927.646 1938.612a20.728 20.728 0 0 0 2.113-.1l.154-.017 6.294-29.344a.214.214 0 0 0-.419-.09l-6.229 29.04c-.937.082-5.938.414-8.579-1.456l5.452-25.5-1.138-2.144a.214.214 0 1 0-.379.2l1.065 2.007-5.478 25.612.109.082c1.909 1.439 4.983 1.71 7.035 1.71z" class="cls-3" transform="translate(-2869.465 -1868.009)"/>
            </g>
            <g id="Group_3377" transform="translate(45.326 107.34)">
                <path id="Path_4090" fill="url(#linear-gradient-46)" d="M948.321 2601.03a1.017 1.017 0 0 1-.433-.1 1.241 1.241 0 0 1-.574-1.573l23-58.356a1.064 1.064 0 0 1 1.441-.627 1.241 1.241 0 0 1 .574 1.573l-23 58.356a1.1 1.1 0 0 1-1.008.727z" transform="translate(-947.225 -2540.279)"/>
                <path id="Path_4091" fill="url(#linear-gradient-47)" d="M1002.754 2601.028a1.1 1.1 0 0 1-1.008-.724l-23-58.356a1.241 1.241 0 0 1 .574-1.573 1.064 1.064 0 0 1 1.441.626l23 58.356a1.241 1.241 0 0 1-.574 1.573 1.017 1.017 0 0 1-.433.098z" transform="translate(-975.748 -2540.277)"/>
                <path id="Path_4092" fill="url(#linear-gradient-48)" d="M2634.745 2601.03a1.018 1.018 0 0 1-.433-.1 1.241 1.241 0 0 1-.574-1.573l23-58.356a1.064 1.064 0 0 1 1.441-.627 1.24 1.24 0 0 1 .574 1.573l-23 58.356a1.1 1.1 0 0 1-1.008.727z" transform="translate(-2477.56 -2540.279)"/>
                <path id="Path_4093" fill="url(#linear-gradient-49)" d="M2689.176 2601.028a1.1 1.1 0 0 1-1.008-.724l-23-58.356a1.241 1.241 0 0 1 .574-1.573 1.064 1.064 0 0 1 1.441.626l23 58.356a1.241 1.241 0 0 1-.574 1.573 1.016 1.016 0 0 1-.433.098z" transform="translate(-2506.082 -2540.277)"/>
            </g>
            <g id="Group_3378" transform="translate(198.159 99.728)">
                <path id="Path_4094" d="M2609.439 2469.868h33.311v-3.438h-33.311c.713 0 .713 3.438 0 3.438z" class="cls-3" transform="translate(-2608.423 -2465.653)"/>
                <path id="Path_4095" fill="url(#linear-gradient-50)" d="M2632.478 2462.247a.314.314 0 0 0 .313-.313v-2.812a.313.313 0 0 0-.313-.312h-33.7a.314.314 0 0 1-.313-.313v-.152a.314.314 0 0 1 .313-.313h35.922a1.439 1.439 0 0 1 1.439 1.438v2.2a1.357 1.357 0 0 1-1.356 1.356h-36a.314.314 0 0 1-.313-.313v-.152a.314.314 0 0 1 .313-.312z" transform="translate(-2598.464 -2458.032)"/>
            </g>
            <path id="Path_4096" fill="url(#linear-gradient-51)" d="M1023.346 2513.33a1.013 1.013 0 0 0-.415-1.082 2.473 2.473 0 0 0-1.523-.476h-199.6a2.7 2.7 0 0 0-1.914.7 1.086 1.086 0 0 0-.149 1.444l2.163 3.105a3.374 3.374 0 0 0 2.749 1.166h195.376a2.251 2.251 0 0 0 2.251-1.232z" transform="translate(-786.032 -2407.07)"/>
        </g>
    </g>
</svg>
