<svg xmlns="http://www.w3.org/2000/svg" width="90.226" height="81.627" viewBox="0 0 90.226 81.627">
    <defs>
        <style>
            .cls-1{fill:#2c3e90}
        </style>
    </defs>
    <g id="account" transform="translate(0 -24.4)">
        <g id="Group_3673" transform="translate(0 24.4)">
            <g id="Group_3672">
                <path id="Path_4547" d="M73.253 24.4h-67.7A5.559 5.559 0 0 0 0 29.953v56.416a5.559 5.559 0 0 0 5.553 5.553h44.34a1.322 1.322 0 0 0 0-2.643h-4.937v-8.551a5.538 5.538 0 0 0-3.417-5.128l-6.944-2.893a1.5 1.5 0 0 1-.923-1.384v-2.061a9.817 9.817 0 0 0 2.821-6.869v-5.642c0-4.617-4.389-8.374-9.784-8.374s-9.784 3.756-9.784 8.374v5.642a9.818 9.818 0 0 0 2.821 6.869v2.064a1.5 1.5 0 0 1-.923 1.384L11.88 75.6a5.538 5.538 0 0 0-3.417 5.126v8.551h-2.91a2.913 2.913 0 0 1-2.91-2.909V41.147h73.519V63.1a1.322 1.322 0 1 0 2.643 0V29.953a5.559 5.559 0 0 0-5.552-5.553zM11.106 80.728a2.9 2.9 0 0 1 1.794-2.686l6.944-2.893a4.131 4.131 0 0 0 2.549-3.824v-.286a1.321 1.321 0 0 0 .748-2.462 7.169 7.169 0 0 1-3.569-6.185v-5.641c0-3.16 3.2-5.73 7.141-5.73s7.141 2.571 7.141 5.73v5.642a7.17 7.17 0 0 1-3.571 6.186 1.322 1.322 0 0 0 .663 2.466c.029 0 .058 0 .087-.006v.286a4.131 4.131 0 0 0 2.549 3.824l6.944 2.893a2.9 2.9 0 0 1 1.79 2.686v8.551h-31.21zM76.162 38.5H2.643v-8.547a2.913 2.913 0 0 1 2.91-2.91h67.7a2.913 2.913 0 0 1 2.909 2.91z" class="cls-1" transform="translate(0 -24.4)"/>
            </g>
        </g>
        <g id="Group_3675" transform="translate(5.649 31.452)">
            <g id="Group_3674">
                <path id="Path_4548" d="M33.383 64.418h-.014a1.329 1.329 0 1 0 .014 0z" class="cls-1" transform="translate(-32.054 -64.418)"/>
            </g>
        </g>
        <g id="Group_3677" transform="translate(14.097 31.452)">
            <g id="Group_3676">
                <path id="Path_4549" d="M81.324 64.418h-.014a1.329 1.329 0 1 0 .014 0z" class="cls-1" transform="translate(-79.995 -64.418)"/>
            </g>
        </g>
        <g id="Group_3679" transform="translate(9.866 31.452)">
            <g id="Group_3678">
                <path id="Path_4550" d="M57.313 64.418H57.3a1.329 1.329 0 1 0 .014 0z" class="cls-1" transform="translate(-55.984 -64.418)"/>
            </g>
        </g>
        <g id="Group_3681" transform="translate(19.746 31.452)">
            <g id="Group_3680">
                <path id="Path_4551" d="M164.146 64.418h-50.775a1.322 1.322 0 0 0 0 2.643h50.775a1.322 1.322 0 1 0 0-2.643z" class="cls-1" transform="translate(-112.049 -64.418)"/>
            </g>
        </g>
        <g id="Group_3683" transform="translate(49.502 65.302)">
            <g id="Group_3682">
                <path id="Path_4552" d="M320.741 263.2l-19.04-6.623a1.32 1.32 0 0 0-.868 0l-13.692 4.762a1.322 1.322 0 0 0 .868 2.5l13.258-4.611 17.656 6.141a39.58 39.58 0 0 1-17.656 28.974 38.988 38.988 0 0 1-15.23-18.881 37.014 37.014 0 0 1-2.489-11.041 1.322 1.322 0 0 0-2.643.057 38.843 38.843 0 0 0 2.623 11.824 41.617 41.617 0 0 0 17.04 20.729 1.321 1.321 0 0 0 1.4 0A41.617 41.617 0 0 0 319 276.3a38.832 38.832 0 0 0 2.623-11.824 1.32 1.32 0 0 0-.882-1.276z" class="cls-1" transform="translate(-280.903 -256.501)"/>
            </g>
        </g>
        <g id="Group_3685" transform="translate(61.299 79.065)">
            <g id="Group_3684">
                <path id="Path_4553" d="M365.006 334.988a1.321 1.321 0 0 0-1.869 0l-8.172 8.172-4.86-4.86a1.322 1.322 0 0 0-1.869 1.869l5.795 5.795a1.322 1.322 0 0 0 1.869 0l9.106-9.106a1.321 1.321 0 0 0 0-1.87z" class="cls-1" transform="translate(-347.848 -334.601)"/>
            </g>
        </g>
        <g id="Group_3687" transform="translate(42.312 46.967)">
            <g id="Group_3686">
                <path id="Path_4554" d="M265.4 152.456h-22.563a2.735 2.735 0 0 0-2.732 2.732v4.231a2.735 2.735 0 0 0 2.732 2.732H265.4a2.735 2.735 0 0 0 2.732-2.732v-4.231a2.735 2.735 0 0 0-2.732-2.732zm.088 6.963a.089.089 0 0 1-.089.089h-22.562a.089.089 0 0 1-.089-.089v-4.231a.089.089 0 0 1 .089-.089H265.4a.089.089 0 0 1 .089.089z" class="cls-1" transform="translate(-240.105 -152.456)"/>
            </g>
        </g>
        <g id="Group_3689" transform="translate(43.723 59.66)">
            <g id="Group_3688">
                <path id="Path_4555" d="M266.355 224.487H249.43a1.322 1.322 0 0 0 0 2.643h16.925a1.322 1.322 0 0 0 0-2.643z" class="cls-1" transform="translate(-248.108 -224.487)"/>
            </g>
        </g>
        <g id="Group_3691" transform="translate(43.723 65.302)">
            <g id="Group_3690">
                <path id="Path_4556" d="M259.3 256.5h-9.87a1.322 1.322 0 1 0 0 2.643h9.87a1.322 1.322 0 1 0 0-2.643z" class="cls-1" transform="translate(-248.108 -256.502)"/>
            </g>
        </g>
    </g>
</svg>
