<svg xmlns="http://www.w3.org/2000/svg" width="80" height="80.002" viewBox="0 0 80 80.002">
    <defs>
        <style>
            .cls-1{fill:#2c3e90}
        </style>
    </defs>
    <g id="block-user" transform="translate(-138.007 245)">
        <g id="Group_3430" transform="translate(138.007 -245)">
            <path id="Path_4122" d="M128.382 183.02v6.427a1.563 1.563 0 0 0 1.563 1.563h28.425a1.563 1.563 0 0 0 1.563-1.563v-6.427a11.406 11.406 0 0 0-7.083-10.485 10.447 10.447 0 1 0-17.385 0 11.405 11.405 0 0 0-7.083 10.485zm15.775-23.595a7.322 7.322 0 1 1-7.322 7.322 7.33 7.33 0 0 1 7.322-7.322zm-6.332 15.625a10.417 10.417 0 0 0 12.663 0 8.251 8.251 0 0 1 6.319 7.97v4.864h-25.3v-4.864a8.251 8.251 0 0 1 6.319-7.97z" class="cls-1" transform="translate(-108.323 -131.877)"/>
            <path id="Path_4123" d="M62.58 0a17.449 17.449 0 0 0-17.264 15.072H6.614A6.615 6.615 0 0 0 .007 21.68v13.079a1.563 1.563 0 0 0 3.125 0V21.68a3.486 3.486 0 0 1 3.482-3.48h38.561a17.425 17.425 0 0 0 23.376 15.6v28.07a3.486 3.486 0 0 1-3.482 3.482H46.533a1.562 1.562 0 0 0-1.145.5l-9.546 10.29-9.542-10.29a1.562 1.562 0 0 0-1.145-.5H6.614a3.486 3.486 0 0 1-3.482-3.482V48.8a1.563 1.563 0 0 0-3.125 0v13.07a6.615 6.615 0 0 0 6.607 6.607h17.854L34.7 79.5a1.562 1.562 0 0 0 2.291 0l10.224-11.023h17.854a6.615 6.615 0 0 0 6.607-6.607V32.283A17.421 17.421 0 0 0 62.58 0zm0 31.726a14.3 14.3 0 1 1 14.3-14.3 14.316 14.316 0 0 1-14.3 14.3z" class="cls-1" transform="translate(-.007)"/>
            <path id="Path_4124" d="M352.337 48.855a1.534 1.534 0 0 0-.111-.124 1.586 1.586 0 0 0-.125-.112 10.274 10.274 0 0 0-14.527 14.528 1.524 1.524 0 0 0 .236.236 10.274 10.274 0 0 0 14.528-14.528zM337.8 56a7.15 7.15 0 0 1 10.983-6.04l-9.869 9.869A7.118 7.118 0 0 1 337.8 56zm7.154 7.158a7.106 7.106 0 0 1-3.831-1.118L351 52.17a7.151 7.151 0 0 1-6.041 10.989z" class="cls-1" transform="translate(-282.384 -38.578)"/>
            <path id="Path_4125" d="M1.57 260.467a1.563 1.563 0 0 0 1.562-1.567 1.563 1.563 0 1 0-1.563 1.567z" class="cls-1" transform="translate(-.007 -217.13)"/>
        </g>
    </g>
</svg>
