<svg xmlns="http://www.w3.org/2000/svg" width="90.24" height="67.68" viewBox="0 0 90.24 67.68">
    <defs>
        <style>
            .cls-1{fill:#2c3e90}
        </style>
    </defs>
    <g id="coupon" transform="translate(0 -59.411)">
        <path id="Path_4510" d="M81.78 127.091H8.46a8.469 8.469 0 0 1-8.46-8.46v-14.1a2.818 2.818 0 0 1 2.82-2.82 8.46 8.46 0 0 0 0-16.92A2.818 2.818 0 0 1 0 81.971v-14.1a8.469 8.469 0 0 1 8.46-8.46h73.32a8.469 8.469 0 0 1 8.46 8.46v14.1a2.818 2.818 0 0 1-2.82 2.82 8.46 8.46 0 0 0 0 16.92 2.818 2.818 0 0 1 2.82 2.82v14.1a8.469 8.469 0 0 1-8.46 8.46zM5.64 107.067v11.564a2.822 2.822 0 0 0 2.82 2.82h73.32a2.822 2.822 0 0 0 2.82-2.82v-11.564a14.1 14.1 0 0 1 0-27.633V67.871a2.822 2.822 0 0 0-2.82-2.82H8.46a2.822 2.822 0 0 0-2.82 2.82v11.564a14.1 14.1 0 0 1 0 27.633z" class="cls-1"/>
        <path id="Path_4511" d="M0 0h48.188v5.642H0z" class="cls-1" transform="rotate(-69.444 99.826 32.845)"/>
        <path id="path-1_20_" d="M127.283 165.449a8.46 8.46 0 1 1 8.46-8.46 8.469 8.469 0 0 1-8.46 8.46zm0-11.28a2.82 2.82 0 1 0 2.82 2.82 2.822 2.822 0 0 0-2.82-2.82z" class="cls-1" transform="translate(-95.504 -71.249)"/>
        <path id="path-1_19_" d="M275.812 254.566a8.46 8.46 0 1 1 8.46-8.46 8.469 8.469 0 0 1-8.46 8.46zm0-11.28a2.82 2.82 0 1 0 2.82 2.82 2.822 2.822 0 0 0-2.82-2.82z" class="cls-1" transform="translate(-214.883 -142.876)"/>
    </g>
</svg>
