<svg xmlns="http://www.w3.org/2000/svg" id="downgrade" width="80" height="80" viewBox="0 0 80 80">
    <defs>
        <style>
            .cls-1{fill:#2c3e90}
        </style>
    </defs>
    <path id="Path_4126" d="M27.255 40.84h-1.793a5.006 5.006 0 0 1-5-5V17a5.006 5.006 0 0 1 5-5h1.793a5.006 5.006 0 0 1 5 5v18.84a5.006 5.006 0 0 1-5 5zm-1.793-25.507A1.672 1.672 0 0 0 23.8 17v18.84a1.672 1.672 0 0 0 1.667 1.667h1.793a1.672 1.672 0 0 0 1.667-1.667V17a1.672 1.672 0 0 0-1.667-1.667z" class="cls-1" transform="translate(47.745 28)"/>
    <path id="Path_4127" d="M32 52c-2.72 0-5.65-2.517-5.65-8.043a15.56 15.56 0 0 1 .717-4.71h-7.02a8.046 8.046 0 0 1-7.933-9.367l1.86-11.16A8.014 8.014 0 0 1 21.9 12h2.92c12.39 0 17.847 4.16 18.077 4.34a1.667 1.667 0 0 1-2.057 2.623c-.037-.03-4.907-3.63-16.02-3.63H21.9a4.7 4.7 0 0 0-4.65 3.937l-1.86 11.16a4.709 4.709 0 0 0 4.643 5.487H29.6a1.67 1.67 0 0 1 1.387 2.593 10.89 10.89 0 0 0-1.313 5.453c.007 3.423 1.427 4.7 2.323 4.7a1.046 1.046 0 0 0 .35-.037c.007-.02.373-.5.373-3.08 0-6.5 8.02-10.857 8.363-11.04a1.666 1.666 0 0 1 1.57 2.94c-1.833.987-6.6 4.363-6.6 8.1 0 2.253 0 6.45-4.06 6.45z" class="cls-1" transform="translate(28.002 28)"/>
    <path id="Path_4128" d="M35 63H8.333A8.341 8.341 0 0 1 0 54.667V11.333A8.341 8.341 0 0 1 8.333 3H15a1.667 1.667 0 1 1 0 3.333H8.333a5.006 5.006 0 0 0-5 5v43.334a5.006 5.006 0 0 0 5 5H35A1.667 1.667 0 1 1 35 63z" class="cls-1" transform="translate(0 7)"/>
    <path id="Path_4129" d="M29 20H9a5.006 5.006 0 0 1-5-5V8.333a1.667 1.667 0 0 1 1.667-1.666h5.167a8.335 8.335 0 0 1 16.333 0h5.167A1.667 1.667 0 0 1 34 8.333V15a5.006 5.006 0 0 1-5 5zM7.333 10v5A1.672 1.672 0 0 0 9 16.667h20A1.672 1.672 0 0 0 30.667 15v-5h-5A1.667 1.667 0 0 1 24 8.333a5 5 0 1 0-10 0A1.667 1.667 0 0 1 12.333 10z" class="cls-1" transform="translate(9.333)"/>
    <path id="Path_4130" d="M38 11.333H4.667a1.667 1.667 0 1 1 0-3.333H38a1.667 1.667 0 1 1 0 3.333z" class="cls-1" transform="translate(7 18.667)"/>
    <path id="Path_4131" d="M31.333 14.333H4.667a1.667 1.667 0 1 1 0-3.333h26.666a1.667 1.667 0 1 1 0 3.333z" class="cls-1" transform="translate(7 25.667)"/>
    <path id="Path_4132" d="M24.667 17.333h-20a1.667 1.667 0 1 1 0-3.333h20a1.667 1.667 0 1 1 0 3.333z" class="cls-1" transform="translate(7 32.667)"/>
    <path id="Path_4133" d="M27 26.333a1.667 1.667 0 0 1-1.667-1.667V11.333a5.006 5.006 0 0 0-5-5h-6.666a1.667 1.667 0 1 1 0-3.333h6.667a8.341 8.341 0 0 1 8.333 8.333v13.334A1.667 1.667 0 0 1 27 26.333z" class="cls-1" transform="translate(28 7)"/>
</svg>
