<svg xmlns="http://www.w3.org/2000/svg" width="80" height="80" viewBox="0 0 80 80">
    <path fill="#2c3e90" d="M27.656 6.25h-9.441A9.391 9.391 0 0 0 9.375 0C-1.2.2-3.534 14.6 6.25 18.215V27.5a3.125 3.125 0 0 0 6.25 0v-9.285a9.423 9.423 0 0 0 5.715-5.715h9.442a3.125 3.125 0 0 0-.001-6.25zM9.375 12.5A3.125 3.125 0 1 1 12.5 9.375 3.129 3.129 0 0 1 9.375 12.5zm42.813 0h9.6a9.423 9.423 0 0 0 5.712 5.715V27.5a3.125 3.125 0 0 0 6.25 0v-9.285A9.391 9.391 0 0 0 80 9.375C79.8-1.2 65.4-3.534 61.785 6.25h-9.6a3.125 3.125 0 0 0 .003 6.25zm18.437-6.25A3.125 3.125 0 1 1 67.5 9.375a3.129 3.129 0 0 1 3.125-3.125zm3.125 55.535v-9.6a3.125 3.125 0 0 0-6.25 0v9.6a9.423 9.423 0 0 0-5.715 5.715H52.5a3.125 3.125 0 0 0 0 6.25h9.285a9.391 9.391 0 0 0 8.84 6.25c10.575-.2 12.909-14.6 3.125-18.215zM70.625 73.75a3.125 3.125 0 1 1 3.125-3.125 3.129 3.129 0 0 1-3.125 3.125zM27.656 67.5h-9.441a9.423 9.423 0 0 0-5.715-5.715v-9.441a3.125 3.125 0 0 0-6.25 0v9.442A9.391 9.391 0 0 0 0 70.625C.2 81.2 14.6 83.534 18.215 73.75h9.442a3.125 3.125 0 0 0-.001-6.25zM9.375 73.75a3.125 3.125 0 1 1 3.125-3.125 3.129 3.129 0 0 1-3.125 3.125zM35.938 9.375a3.906 3.906 0 0 1 7.813 0 3.906 3.906 0 0 1-7.813 0zm3.906 57.344a3.906 3.906 0 1 0 3.906 3.906 3.906 3.906 0 0 0-3.906-3.906zm30.781-30.313a3.906 3.906 0 1 0 3.906 3.906 3.906 3.906 0 0 0-3.906-3.906zm-61.25 0a3.906 3.906 0 1 0 3.906 3.906 3.906 3.906 0 0 0-3.906-3.906zm51.875 2.969v12.5a9.386 9.386 0 0 1-9.375 9.375h-12.5A9.386 9.386 0 0 1 30 51.875V50h-1.875a9.386 9.386 0 0 1-9.375-9.375v-12.5a9.386 9.386 0 0 1 9.375-9.375h12.5A9.386 9.386 0 0 1 50 28.125V30h1.875a9.386 9.386 0 0 1 9.375 9.375zM30 43.75v-4.375A9.386 9.386 0 0 1 39.375 30h4.375v-1.875A3.129 3.129 0 0 0 40.625 25h-12.5A3.129 3.129 0 0 0 25 28.125v12.5a3.129 3.129 0 0 0 3.125 3.125zm9.375-7.5a3.129 3.129 0 0 0-3.125 3.125v4.375h4.375a3.129 3.129 0 0 0 3.125-3.125V36.25zM55 39.375a3.129 3.129 0 0 0-3.125-3.125H50v4.375A9.386 9.386 0 0 1 40.625 50H36.25v1.875A3.129 3.129 0 0 0 39.375 55h12.5A3.129 3.129 0 0 0 55 51.875z"/>
</svg>
