<svg xmlns="http://www.w3.org/2000/svg" id="training" width="80" height="80" viewBox="0 0 80 80">
    <defs>
        <style>
            .cls-1{fill:#2c3e90}
        </style>
    </defs>
    <g id="Group_39">
        <path id="Path_1291" d="M72.7 36.392l-3.112-.659a2.654 2.654 0 0 1-2.025-2.144l-.572-3.027a9.524 9.524 0 0 0 2.8-3.592h.884a5.326 5.326 0 0 0 5.164-5.47 5.616 5.616 0 0 0-1.052-3.271l.472-1.5a12.6 12.6 0 0 0 .579-3.782C75.839 6.36 70.778 1 64.556 1h-3.421a9.789 9.789 0 0 0-8.01 4.264l-.941.25a6.052 6.052 0 0 0-2 .953H3.581V42h12.54l-1.935 8.2H1v2.733h80v-5.822a10.824 10.824 0 0 0-8.3-10.719zM34.831 42l1.935 8.2H23.3l1.934-8.2zm2.661 0H43.5a11.382 11.382 0 0 0-1.213 5.109V50.2h-2.86zm7.379 5.109a8.118 8.118 0 0 1 6.223-8.041l1.09-.231L57.061 50.2h-12.19zM56.863 36.9l2.4 1.271-3.324 2.817-1.175-2.739a5.091 5.091 0 0 0 2.1-1.349zm5.142 5.1h-.72l-.508-1.614.868-.735.868.735zm-2.975 1.48l-.542 3.443-1.445-3.369 1.587-1.345zm2.418 1.256h.395L62.7 50.2h-2.113zm2.813-1.256l.4-1.271 1.587 1.345-1.448 3.369zm4.265-5.232l-1.176 2.739-3.324-2.817 2.4-1.271a5.118 5.118 0 0 0 2.1 1.349zm-3.49-4.125c.026.137.07.267.1.4l-3.494 1.852-3.5-1.851c.035-.133.079-.262.1-.4l.422-2.231a8.4 8.4 0 0 0 5.938 0zM68.1 22.868a6.462 6.462 0 1 1-12.9 0v-5.3a4.061 4.061 0 0 1 2.907-3.968 3.874 3.874 0 0 0 3.538 2.438h5.161A1.332 1.332 0 0 1 68.1 17.4zm2.581 1.367h-.1a10.159 10.159 0 0 0 .1-1.367v-4.1a2.738 2.738 0 0 1 0 5.467zM52.81 8.164l1.889-.5.276-.439a7.289 7.289 0 0 1 6.16-3.492h3.421a8.98 8.98 0 0 1 8.7 9.216 9.736 9.736 0 0 1-.446 2.915l-.183.581a4.9 4.9 0 0 0-1.951-.411h-.236a3.889 3.889 0 0 0-3.634-2.734h-5.161a1.369 1.369 0 0 1 0-2.733h1.29V7.834h-1.29a3.919 3.919 0 0 0-3.728 2.995l-.418.111a6.642 6.642 0 0 0-4.7 5.1h-.185a4.878 4.878 0 0 0-1.835.373 18.837 18.837 0 0 1-.746-4.473 3.846 3.846 0 0 1 2.777-3.776zm-.2 10.6v4.1a10.159 10.159 0 0 0 .1 1.367h-.1a2.738 2.738 0 0 1 0-5.467zM6.161 9.2H48.03a6.906 6.906 0 0 0-.578 2.733 24.042 24.042 0 0 0 1.124 6.2 5.611 5.611 0 0 0-1.124 3.367 5.326 5.326 0 0 0 5.161 5.467h.887a9.525 9.525 0 0 0 2.8 3.592l-.572 3.027a2.656 2.656 0 0 1-2.028 2.146l-3.112.659a10.1 10.1 0 0 0-5.145 2.877H6.161zM18.782 42h3.791l-1.935 8.2h-3.792zm59.637 8.2H66.23l4.876-11.36 1.09.231a8.12 8.12 0 0 1 6.223 8.041z" class="cls-1" transform="translate(-1 -1)"/>
        <path id="Path_1292" d="M45.269 11.733h-16.4V17.2H23.4V9H7v16.4h8.2v8.2h19.135v-8.2h10.934zm-35.535 0h10.933v10.934H9.733zM31.6 30.868H17.934V25.4H23.4v-5.466h8.2zm10.934-8.2h-8.2V17.2H31.6v-2.733h10.935z" class="cls-1" transform="translate(1.2 1.934)"/>
        <path id="Path_1293" d="M72.6 57.882a9.834 9.834 0 0 0 3.24-7.315V49.2A7.989 7.989 0 0 0 68.1 41h-2.584a7.989 7.989 0 0 0-7.742 8.2v1.367a9.835 9.835 0 0 0 3.239 7.315 11.741 11.741 0 0 0-7.119 6.191 11.836 11.836 0 0 0-7.1-6.182 9.782 9.782 0 0 0 3.234-7.324V49.2A7.989 7.989 0 0 0 42.29 41h-2.58a7.989 7.989 0 0 0-7.742 8.2v1.367a9.782 9.782 0 0 0 3.232 7.325 11.831 11.831 0 0 0-7.1 6.191 11.848 11.848 0 0 0-7.1-6.2 9.781 9.781 0 0 0 3.225-7.316v-2.733A6.658 6.658 0 0 0 17.774 41H8.742a2.663 2.663 0 0 0-2.581 2.733v6.834a9.782 9.782 0 0 0 3.234 7.324A12.234 12.234 0 0 0 1 69.7v1.367h80V69.7a12.184 12.184 0 0 0-8.4-11.818zm-3.212 2.252a2.585 2.585 0 1 1-5.161 0 2.844 2.844 0 0 1 .05-.395 8.3 8.3 0 0 0 5.061 0 2.844 2.844 0 0 1 .049.395zm-9.032-9.567V49.2a5.326 5.326 0 0 1 5.161-5.467H68.1a5.326 5.326 0 0 1 5.158 5.467v1.367a6.907 6.907 0 0 1-3.721 6.189 6.2 6.2 0 0 1-5.471-.005 6.9 6.9 0 0 1-3.711-6.184zm-25.806 0V49.2a5.326 5.326 0 0 1 5.161-5.467h2.579a5.326 5.326 0 0 1 5.162 5.467v1.367a6.462 6.462 0 1 1-12.9 0zm3.871 9.567h5.161a9.226 9.226 0 0 1 8.929 8.2H29.49a9.226 9.226 0 0 1 8.929-8.2zM8.742 50.567v-6.834h9.032a4 4 0 0 1 3.871 4.1v2.733a6.658 6.658 0 0 1-6.451 6.834 6.658 6.658 0 0 1-6.452-6.833zm-5.07 17.768a9.232 9.232 0 0 1 8.941-8.2h5.161a9.232 9.232 0 0 1 8.941 8.2zm51.622 0a9.38 9.38 0 0 1 6.387-7.815 5.125 5.125 0 0 0 10.249 0 9.384 9.384 0 0 1 6.4 7.812z" class="cls-1" transform="translate(-1 8.932)"/>
    </g>
</svg>
