<svg xmlns="http://www.w3.org/2000/svg" id="network" width="80" height="80" viewBox="0 0 80 80">
    <defs>
        <style>
            .cls-1{fill:#2c3e90}
        </style>
    </defs>
    <g id="Group_3381" transform="translate(69.333 16)">
        <g id="Group_3380">
            <path id="Path_4097" d="M449.067 102.4a5.333 5.333 0 1 0 5.333 5.333 5.339 5.339 0 0 0-5.333-5.333zm0 8a2.667 2.667 0 1 1 2.667-2.667 2.669 2.669 0 0 1-2.667 2.667z" class="cls-1" transform="translate(-443.734 -102.4)"/>
        </g>
    </g>
    <g id="Group_3383" transform="translate(0 60)">
        <g id="Group_3382">
            <path id="Path_4098" d="M5.333 384a5.333 5.333 0 1 0 5.333 5.333A5.339 5.339 0 0 0 5.333 384zm0 8A2.667 2.667 0 1 1 8 389.333 2.669 2.669 0 0 1 5.333 392z" class="cls-1" transform="translate(0 -384)"/>
        </g>
    </g>
    <g id="Group_3385" transform="translate(58.666 11.999)">
        <g id="Group_3384">
            <path id="Path_4099" d="M388.878 82.478l-11.5-5.553a1.333 1.333 0 0 0-1.159 2.4l11.5 5.553a1.333 1.333 0 0 0 1.159-2.4z" class="cls-1" transform="translate(-375.463 -76.792)"/>
        </g>
    </g>
    <g id="Group_3387" transform="translate(54.667 69.333)">
        <g id="Group_3386">
            <path id="Path_4100" d="M355.2 443.733a5.333 5.333 0 1 0 5.333 5.333 5.339 5.339 0 0 0-5.333-5.333zm0 8a2.667 2.667 0 1 1 2.667-2.667 2.669 2.669 0 0 1-2.667 2.667z" class="cls-1" transform="translate(-349.867 -443.733)"/>
        </g>
    </g>
    <g id="Group_3389" transform="translate(43.999 65.332)">
        <g id="Group_3388">
            <path id="Path_4101" d="M295.011 423.811l-11.5-5.553a1.333 1.333 0 1 0-1.159 2.4l11.5 5.553a1.333 1.333 0 1 0 1.159-2.4z" class="cls-1" transform="translate(-281.596 -418.124)"/>
        </g>
    </g>
    <g id="Group_3391" transform="translate(34.667 36)">
        <g id="Group_3390">
            <path id="Path_4102" d="M227.2 230.4a5.333 5.333 0 1 0 5.333 5.333 5.339 5.339 0 0 0-5.333-5.333zm0 8a2.667 2.667 0 1 1 2.667-2.667 2.669 2.669 0 0 1-2.667 2.667z" class="cls-1" transform="translate(-221.867 -230.4)"/>
        </g>
    </g>
    <g id="Group_3393" transform="translate(26.666 30.667)">
        <g id="Group_3392">
            <path id="Path_4103" d="M181.654 203.439l-8.836-6.887a1.334 1.334 0 1 0-1.64 2.1l8.836 6.887a1.334 1.334 0 1 0 1.64-2.1z" class="cls-1" transform="translate(-170.664 -196.272)"/>
        </g>
    </g>
    <g id="Group_3395" transform="translate(49.333 34.667)">
        <g id="Group_3394">
            <path id="Path_4104" d="M330.4 221.867a14.667 14.667 0 1 0 14.667 14.667 14.684 14.684 0 0 0-14.667-14.667zm0 26.667a12 12 0 1 1 12-12 12.013 12.013 0 0 1-12 12z" class="cls-1" transform="translate(-315.733 -221.867)"/>
        </g>
    </g>
    <g id="Group_3397" transform="translate(58.667 40)">
        <g id="Group_3396">
            <path id="Path_4105" d="M380.8 256a5.333 5.333 0 1 0 5.333 5.333A5.339 5.339 0 0 0 380.8 256zm0 8a2.667 2.667 0 1 1 2.667-2.667A2.669 2.669 0 0 1 380.8 264z" class="cls-1" transform="translate(-375.467 -256)"/>
        </g>
    </g>
    <g id="Group_3399" transform="translate(56 53.333)">
        <g id="Group_3398">
            <path id="Path_4106" d="M370.268 341.333h-7.736a4.082 4.082 0 0 0-4.132 4.02v3.515a1.334 1.334 0 0 0 .665 1.155 14.592 14.592 0 0 0 14.669 0 1.332 1.332 0 0 0 .665-1.153v-3.515a4.082 4.082 0 0 0-4.131-4.022zm1.465 6.74a12.09 12.09 0 0 1-10.667 0v-2.719a1.415 1.415 0 0 1 1.466-1.354h7.736a1.415 1.415 0 0 1 1.465 1.355v2.719z" class="cls-1" transform="translate(-358.4 -341.333)"/>
        </g>
    </g>
    <g id="Group_3401" transform="translate(17.333 50.667)">
        <g id="Group_3400">
            <path id="Path_4107" d="M125.6 324.267a14.667 14.667 0 1 0 14.667 14.667 14.684 14.684 0 0 0-14.667-14.667zm0 26.667a12 12 0 1 1 12-12 12.013 12.013 0 0 1-12 12z" class="cls-1" transform="translate(-110.933 -324.267)"/>
        </g>
    </g>
    <g id="Group_3403" transform="translate(26.667 56)">
        <g id="Group_3402">
            <path id="Path_4108" d="M176 358.4a5.333 5.333 0 1 0 5.333 5.333A5.339 5.339 0 0 0 176 358.4zm0 8a2.667 2.667 0 1 1 2.667-2.667A2.669 2.669 0 0 1 176 366.4z" class="cls-1" transform="translate(-170.667 -358.4)"/>
        </g>
    </g>
    <g id="Group_3405" transform="translate(24 69.333)">
        <g id="Group_3404">
            <path id="Path_4109" d="M165.468 443.733h-7.736a4.082 4.082 0 0 0-4.132 4.02v3.515a1.334 1.334 0 0 0 .665 1.155 14.592 14.592 0 0 0 14.669 0 1.332 1.332 0 0 0 .665-1.153v-3.515a4.082 4.082 0 0 0-4.131-4.022zm1.465 6.74a12.09 12.09 0 0 1-10.667 0v-2.719a1.415 1.415 0 0 1 1.465-1.355h7.736a1.415 1.415 0 0 1 1.465 1.355v2.719z" class="cls-1" transform="translate(-153.6 -443.733)"/>
        </g>
    </g>
    <g id="Group_3407" transform="translate(0 17.333)">
        <g id="Group_3406">
            <path id="Path_4110" d="M14.667 110.933A14.667 14.667 0 1 0 29.333 125.6a14.684 14.684 0 0 0-14.666-14.667zm0 26.667a12 12 0 1 1 12-12 12.013 12.013 0 0 1-12 12z" class="cls-1" transform="translate(0 -110.933)"/>
        </g>
    </g>
    <g id="Group_3409" transform="translate(9.333 22.667)">
        <g id="Group_3408">
            <path id="Path_4111" d="M65.067 145.067A5.333 5.333 0 1 0 70.4 150.4a5.339 5.339 0 0 0-5.333-5.333zm0 8a2.667 2.667 0 1 1 2.667-2.667 2.669 2.669 0 0 1-2.667 2.667z" class="cls-1" transform="translate(-59.734 -145.067)"/>
        </g>
    </g>
    <g id="Group_3411" transform="translate(6.667 36)">
        <g id="Group_3410">
            <path id="Path_4112" d="M54.535 230.4H46.8a4.082 4.082 0 0 0-4.132 4.02v3.515a1.334 1.334 0 0 0 .665 1.155 14.592 14.592 0 0 0 14.669 0 1.332 1.332 0 0 0 .665-1.153v-3.515a4.082 4.082 0 0 0-4.132-4.022zM56 237.14a12.09 12.09 0 0 1-10.667 0v-2.719a1.415 1.415 0 0 1 1.465-1.355h7.736A1.415 1.415 0 0 1 56 234.421v2.719z" class="cls-1" transform="translate(-42.667 -230.4)"/>
        </g>
    </g>
    <g id="Group_3413" transform="translate(32)">
        <g id="Group_3412">
            <path id="Path_4113" d="M219.467 0a14.667 14.667 0 1 0 14.667 14.667A14.684 14.684 0 0 0 219.467 0zm0 26.667a12 12 0 1 1 12-12 12.013 12.013 0 0 1-12 12z" class="cls-1" transform="translate(-204.8)"/>
        </g>
    </g>
    <g id="Group_3415" transform="translate(41.333 5.333)">
        <g id="Group_3414">
            <path id="Path_4114" d="M269.867 34.133a5.333 5.333 0 1 0 5.333 5.333 5.339 5.339 0 0 0-5.333-5.333zm0 8a2.667 2.667 0 1 1 2.667-2.667 2.669 2.669 0 0 1-2.667 2.667z" class="cls-1" transform="translate(-264.534 -34.133)"/>
        </g>
    </g>
    <g id="Group_3417" transform="translate(38.667 18.667)">
        <g id="Group_3416">
            <path id="Path_4115" d="M259.335 119.467H251.6a4.082 4.082 0 0 0-4.132 4.02V127a1.334 1.334 0 0 0 .665 1.155 14.592 14.592 0 0 0 14.669 0 1.332 1.332 0 0 0 .665-1.153v-3.515a4.082 4.082 0 0 0-4.132-4.02zm1.465 6.74a12.09 12.09 0 0 1-10.667 0v-2.719a1.415 1.415 0 0 1 1.465-1.355h7.736a1.415 1.415 0 0 1 1.465 1.355v2.719z" class="cls-1" transform="translate(-247.467 -119.467)"/>
        </g>
    </g>
    <g id="Group_3419" transform="translate(22.761 13.333)">
        <g id="Group_3418">
            <path id="Path_4116" d="M157.258 85.8a1.335 1.335 0 0 0-1.88-.145l-9.24 7.907a1.333 1.333 0 1 0 1.733 2.025l9.24-7.907a1.333 1.333 0 0 0 .147-1.88z" class="cls-1" transform="translate(-145.671 -85.333)"/>
        </g>
    </g>
    <g id="Group_3421" transform="translate(53.333 24.002)">
        <g id="Group_3420">
            <path id="Path_4117" d="M351.733 164.81l-8-10.667a1.333 1.333 0 0 0-2.133 1.6l8 10.667a1.333 1.333 0 0 0 2.133-1.6z" class="cls-1" transform="translate(-341.333 -153.61)"/>
        </g>
    </g>
    <g id="Group_3423" transform="translate(42.943 53.209)">
        <g id="Group_3422">
            <path id="Path_4118" d="M284.681 341.073a1.334 1.334 0 0 0-1.867-.267l-7.448 5.585a1.333 1.333 0 0 0 1.6 2.132l7.448-5.585a1.332 1.332 0 0 0 .267-1.865z" class="cls-1" transform="translate(-274.833 -340.54)"/>
        </g>
    </g>
    <g id="Group_3425" transform="translate(8 64)">
        <g id="Group_3424">
            <path id="Path_4119" d="M61.867 409.6h-9.334a1.333 1.333 0 0 0 0 2.667h9.333a1.333 1.333 0 0 0 0-2.667z" class="cls-1" transform="translate(-51.2 -409.6)"/>
        </g>
    </g>
    <g id="Group_3427" transform="translate(9.333)">
        <g id="Group_3426">
            <path id="Path_4120" d="M65.066 0A5.333 5.333 0 1 0 70.4 5.333 5.339 5.339 0 0 0 65.066 0zm0 8a2.667 2.667 0 1 1 2.667-2.667A2.669 2.669 0 0 1 65.066 8z" class="cls-1" transform="translate(-59.733)"/>
        </g>
    </g>
    <g id="Group_3429" transform="translate(13.333 8)">
        <g id="Group_3428">
            <path id="Path_4121" d="M86.667 51.2a1.333 1.333 0 0 0-1.333 1.333v9.333a1.333 1.333 0 0 0 2.667 0v-9.333a1.333 1.333 0 0 0-1.334-1.333z" class="cls-1" transform="translate(-85.334 -51.2)"/>
        </g>
    </g>
</svg>
