<svg xmlns="http://www.w3.org/2000/svg" width="69.332" height="80" viewBox="0 0 69.332 80">
    <defs>
        <style>
            .cls-1{fill:#2c3e90}
        </style>
    </defs>
    <g id="tag" transform="translate(-.005 -.001)">
        <path id="Path_4220" d="M115.482 200.012h-16.7c-1.537 0-2.783.6-2.783 1.333s1.246 1.333 2.783 1.333h16.7c1.537 0 2.783-.6 2.783-1.333s-1.246-1.333-2.783-1.333zm0 0" class="cls-1" transform="translate(-85.797 -149.344)"/>
        <path id="Path_4226" d="M115.482 200.012h-16.7c-1.537 0-2.783.6-2.783 1.333s1.246 1.333 2.783 1.333h16.7c1.537 0 2.783-.6 2.783-1.333s-1.246-1.333-2.783-1.333zm0 0" class="cls-1" transform="translate(-85.797 -142.303)"/>
        <path id="Path_4221" d="M115.482 424.012h-16.7c-1.537 0-2.783.6-2.783 1.333s1.246 1.333 2.783 1.333h16.7c1.537 0 2.783-.6 2.783-1.333s-1.246-1.333-2.783-1.333zm0 0" class="cls-1" transform="translate(-85.797 -359.262)"/>
        <path id="Path_4222" d="M67.727 51.335l-19.574-33.9a22.452 22.452 0 0 0 3.176-3.957c2.223-3.6 2.62-7.017 1.117-9.62-2.99-5.18-12.434-5.139-21.5.094a32.987 32.987 0 0 0-3.466 2.337l-1.08-1.22a6.754 6.754 0 0 0-10.133 0L1.7 21.586A6.753 6.753 0 0 0 0 26.058V68a12.013 12.013 0 0 0 12 12h18.671a12.013 12.013 0 0 0 12-12V26.058a6.738 6.738 0 0 0-1.071-3.623h.01a32.568 32.568 0 0 0 4.523-3.154l19.285 33.387A9.332 9.332 0 0 1 62 65.42l-16.162 9.333a9.252 9.252 0 0 1-2.266.923 1.334 1.334 0 1 0 .686 2.577 11.989 11.989 0 0 0 2.907-1.191l16.165-9.333a12 12 0 0 0 4.4-16.394zM40 68a9.344 9.344 0 0 1-9.333 9.333H12A9.344 9.344 0 0 1 2.671 68V26.058A4.092 4.092 0 0 1 3.7 23.35L18.271 6.835a4.084 4.084 0 0 1 6.133 0l13 14.737a22.07 22.07 0 0 1-9.504 2.109 6.6 6.6 0 0 0 .1-1.012A6.674 6.674 0 0 0 21.337 16a1.3 1.3 0 0 0-.428.087 1.319 1.319 0 0 0-1.447 1.018 7.453 7.453 0 0 0 .652 5.414A7.224 7.224 0 0 0 24 25.637a3.983 3.983 0 0 1-6.667-2.968 1.333 1.333 0 0 0-2.667 0 6.657 6.657 0 0 0 12.258 3.608 15.618 15.618 0 0 0 1.58.087 25.715 25.715 0 0 0 10.707-2.7A4.075 4.075 0 0 1 40 26.058zM25.337 22.669a3.98 3.98 0 0 1-.059.583 4.846 4.846 0 0 1-2.854-2.064 4.277 4.277 0 0 1-.507-2.46 4 4 0 0 1 3.42 3.941zm14.943-2.555c-.133.077-.266.144-.4.219L29.253 8.289a30.243 30.243 0 0 1 3.027-2.02C39.791 1.931 47.969 1.44 50.136 5.2c.991 1.714.608 4.16-1.076 6.887a19.088 19.088 0 0 1-2.293 2.956l-.014-.024a6.754 6.754 0 0 0-3.7-3.028l-5.221-1.765a1.333 1.333 0 0 0-.849 2.527L42.2 14.51a4.1 4.1 0 0 1 2.24 1.833l.34.588a29.706 29.706 0 0 1-4.5 3.187zm0 0" class="cls-1"/>
        <path id="Path_4223" d="M272.183 285.779a1.333 1.333 0 0 0 1.821.488l9.237-5.333a1.333 1.333 0 1 0-1.333-2.309l-9.237 5.333a1.333 1.333 0 0 0-.488 1.822zm0 0" class="cls-1" transform="translate(-226.667 -232.034)"/>
        <path id="Path_4224" d="M282.312 328.678a1.332 1.332 0 0 0 1.821.489l11.547-6.667a1.334 1.334 0 0 0-1.333-2.31l-11.547 6.666a1.334 1.334 0 0 0-.488 1.822zm0 0" class="cls-1" transform="translate(-235.108 -266.676)"/>
        <path id="Path_4225" d="M281.06 249.138a1.334 1.334 0 0 0 .667-.179l4.618-2.667a1.333 1.333 0 1 0-1.333-2.309l-4.618 2.667a1.333 1.333 0 0 0 .667 2.488zm0 0" class="cls-1" transform="translate(-233.103 -203.166)"/>
    </g>
</svg>
