<svg xmlns="http://www.w3.org/2000/svg" width="214" height="131" viewBox="0 0 214 131">
  <defs>
    <style>
      .cls-1 {
        fill: #8b77e6;
      }

      .cls-2 {
        fill: #d4dbff;
      }

      .cls-10, .cls-11, .cls-12, .cls-13, .cls-14, .cls-15, .cls-16, .cls-17, .cls-18, .cls-19, .cls-2, .cls-20, .cls-21, .cls-22, .cls-23, .cls-24, .cls-25, .cls-4, .cls-5, .cls-8, .cls-9 {
        fill-rule: evenodd;
      }

      .cls-3, .cls-4 {
        fill: #bbbbf6;
      }

      .cls-5 {
        fill: #f4f5f9;
      }

      .cls-6, .cls-8 {
        fill: #2c3e90;
      }

      .cls-7 {
        fill: #e6e6f9;
      }

      .cls-9 {
        fill: #dedffd;
      }

      .cls-10 {
        fill: #b4002b;
      }

      .cls-11 {
        fill: #70001b;
      }

      .cls-12 {
        fill: #b1aec1;
      }

      .cls-13 {
        fill: #e76d60;
      }

      .cls-14 {
        fill: #fff;
      }

      .cls-15 {
        fill: #fcb187;
      }

      .cls-16 {
        fill: #f49677;
      }

      .cls-17 {
        fill: #31275b;
      }

      .cls-18 {
        fill: #0f151d;
      }

      .cls-19 {
        fill: #4f4d6e;
      }

      .cls-20 {
        fill: #fcccb1;
      }

      .cls-21 {
        fill: #ded8f9;
      }

      .cls-22 {
        fill: #f1effd;
      }

      .cls-23 {
        fill: #6176d4;
      }

      .cls-24 {
        fill: #dbdbfd;
      }

      .cls-25 {
        fill: #ada5d8;
      }

      .cls-26 {
        fill: #c9c0ed;
      }
    </style>
  </defs>
  <g id="Illustration" transform="translate(-55.968 -55.222)">
    <g id="Group_1255" data-name="Group 1255" transform="translate(55.968 55.222)">
      <path id="Path_2788" data-name="Path 2788" class="cls-1" d="M623.022,174.071a.239.239,0,0,1,.479,0v1.074a.239.239,0,0,1-.479,0Zm-1.625.872a.239.239,0,1,1,.338-.338l.759.759a.239.239,0,1,1-.337.338Zm-.534,1.767a.238.238,0,1,1,0-.476h1.073a.238.238,0,0,1,0,.476Zm.872,1.625A.238.238,0,0,1,621.4,178l.759-.759a.235.235,0,0,1,.337,0,.24.24,0,0,1,0,.338Zm1.766.534a.239.239,0,1,1-.479,0V177.8a.239.239,0,0,1,.479,0Zm1.625-.869a.238.238,0,0,1-.338.335l-.759-.756a.24.24,0,0,1,0-.338.236.236,0,0,1,.338,0Zm.534-1.766a.238.238,0,1,1,0,.476h-1.074a.238.238,0,0,1,0-.476Zm-.872-1.628a.239.239,0,1,1,.338.338l-.759.759a.239.239,0,1,1-.338-.338Z" transform="translate(-431.302 -134.344)"/>
      <path id="Path_2789" data-name="Path 2789" class="cls-2" d="M116.178,55.222A26.516,26.516,0,0,0,89.641,81.564h0A26.516,26.516,0,0,0,116.178,107.9h0a5.322,5.322,0,0,1,5.327,5.286h0a5.32,5.32,0,0,1-5.327,5.286H102.292a12.937,12.937,0,0,0-12.948,12.852h0a12.936,12.936,0,0,0,12.948,12.848,11.188,11.188,0,0,1,11.2,11.114h0a20.413,20.413,0,0,0,20.428,20.278H253.846a26.519,26.519,0,0,0,26.538-26.342h0a26.518,26.518,0,0,0-26.538-26.339H235.131A5.324,5.324,0,0,1,229.8,117.6h0a5.322,5.322,0,0,1,5.326-5.287h4.755a12.937,12.937,0,0,0,12.947-12.851h0a12.935,12.935,0,0,0-12.924-12.848h-1.373a11.188,11.188,0,0,1-11.2-11.113h0a20.414,20.414,0,0,0-20.431-20.278Z" transform="translate(-78.123 -55.222)"/>
      <path id="Path_2790" data-name="Path 2790" class="cls-2" d="M603.077,176.989a12.861,12.861,0,1,0-12.86-12.861,12.86,12.86,0,0,0,12.86,12.861Z" transform="translate(-411.118 -119.351)"/>
      <g id="Group_1239" data-name="Group 1239" transform="translate(24.577 14.504)">
        <rect id="Rectangle_351" data-name="Rectangle 351" class="cls-3" width="12.459" height="3.776" transform="translate(18.505 0)"/>
        <rect id="Rectangle_352" data-name="Rectangle 352" class="cls-3" width="12.462" height="3.776" transform="translate(0 4.532)"/>
        <rect id="Rectangle_353" data-name="Rectangle 353" class="cls-3" width="12.459" height="3.776" transform="translate(13.054 4.532)"/>
        <rect id="Rectangle_354" data-name="Rectangle 354" class="cls-3" width="12.459" height="3.776" transform="translate(5.45 9.061)"/>
        <rect id="Rectangle_355" data-name="Rectangle 355" class="cls-3" width="12.462" height="3.776" transform="translate(0 13.594)"/>
        <rect id="Rectangle_356" data-name="Rectangle 356" class="cls-3" width="12.459" height="3.776" transform="translate(13.054 13.594)"/>
      </g>
      <rect id="Rectangle_357" data-name="Rectangle 357" class="cls-3" width="12.462" height="3.774" transform="translate(51.035 96.441)"/>
      <rect id="Rectangle_358" data-name="Rectangle 358" class="cls-3" width="12.462" height="3.774" transform="translate(64.056 96.441)"/>
      <rect id="Rectangle_359" data-name="Rectangle 359" class="cls-3" width="12.459" height="3.775" transform="translate(45.601 100.927)"/>
      <rect id="Rectangle_360" data-name="Rectangle 360" class="cls-3" width="12.459" height="3.775" transform="translate(58.622 100.927)"/>
      <rect id="Rectangle_361" data-name="Rectangle 361" class="cls-3" width="12.462" height="3.776" transform="translate(64.056 105.205)"/>
      <rect id="Rectangle_362" data-name="Rectangle 362" class="cls-3" width="12.459" height="3.776" transform="translate(45.601 109.735)"/>
      <rect id="Rectangle_363" data-name="Rectangle 363" class="cls-3" width="12.459" height="3.776" transform="translate(58.622 109.735)"/>
      <g id="Group_1242" data-name="Group 1242" transform="translate(61.536 10.875)">
        <path id="Path_2791" data-name="Path 2791" class="cls-4" d="M258.887,89.321h54.849a2.551,2.551,0,0,1,2.543,2.543V170.1h1.951a1.714,1.714,0,0,1,1.706,1.709v6.986a1.712,1.712,0,0,1-1.706,1.706H254.392a1.712,1.712,0,0,1-1.706-1.706v-6.986a1.714,1.714,0,0,1,1.706-1.709h1.952V91.864a2.553,2.553,0,0,1,2.543-2.543Z" transform="translate(-248.307 -88.732)"/>
        <path id="Path_2792" data-name="Path 2792" class="cls-5" d="M261.953,87.569H316.8a2.548,2.548,0,0,1,2.543,2.541v79.448A2.548,2.548,0,0,1,316.8,172.1H261.953a2.549,2.549,0,0,1-2.543-2.541V90.11a2.549,2.549,0,0,1,2.543-2.541Z" transform="translate(-252.77 -87.569)"/>
        <rect id="Rectangle_364" data-name="Rectangle 364" class="cls-6" width="50.64" height="33.152" transform="translate(11.288 44.206)"/>
        <g id="Group_1240" data-name="Group 1240" transform="translate(11.288 4.645)">
          <rect id="Rectangle_365" data-name="Rectangle 365" class="cls-7" width="50.64" height="40.421"/>
          <path id="Path_2793" data-name="Path 2793" class="cls-8" d="M288.091,116.241V128.96H305.92V116.241Zm0,17.713v12.719H305.92V133.954Zm22.823,12.719h17.829V133.954H310.914Zm17.829-17.713V116.241H310.914V128.96Z" transform="translate(-283.097 -111.247)"/>
          <path id="Path_2794" data-name="Path 2794" class="cls-4" d="M335.842,130.012l-3.132,3.132h-8.291l10.6-10.6h.823Zm-7.818-7.468h3.592l-10.6,10.6h-.982v-2.61Zm-12.985,26.2h-6.215l6.215-6.215Zm-9.619,0H301.83l10.6-10.6h2.61v.982Zm22.295-10.6-7.682,7.682v-7.682Z" transform="translate(-292.217 -115.431)"/>
        </g>
        <path id="Path_2795" data-name="Path 2795" class="cls-9" d="M250.236,327.852h63.839a1.711,1.711,0,0,1,1.705,1.706v6.986a1.713,1.713,0,0,1-1.705,1.709H250.236a1.714,1.714,0,0,1-1.706-1.709v-6.986a1.711,1.711,0,0,1,1.706-1.706Z" transform="translate(-245.548 -247.073)"/>
        <g id="Group_1241" data-name="Group 1241" transform="translate(0 8.184)">
          <path id="Path_2796" data-name="Path 2796" class="cls-10" d="M319.713,223.821l-.661.069-.407-.014-.407-.018-.652-.121-3.73-3.816-8.574,3.776c.263,13.475-1.146,19.8-2.8,29.088H328.53c.035-4,1.649-9.928,1.986-13.143l1.467-14.894-8.251-4.44Z" transform="translate(-281.362 -183.611)"/>
          <path id="Path_2797" data-name="Path 2797" class="cls-11" d="M358.427,253.549h4.7a15.394,15.394,0,0,1,2.647-1.883c.373-3.808,1.588-8.519,1.877-11.261l.041-.422q-.156-1.541-.347-3.331a14.667,14.667,0,0,1,1.574-9.117l.2-2.024-8.251-4.44-1.3,1.137-.447,2.13s4.46,3.441,5,5.323-1.345,14.835-2.688,20.426a6.088,6.088,0,0,1-3.008,3.459Z" transform="translate(-318.5 -184.375)"/>
          <path id="Path_2798" data-name="Path 2798" class="cls-11" d="M308.524,232.767a107.814,107.814,0,0,1-1.172,19.111h0s4.376-16.368,3.891-16.816c-.379-.349-.852-.742-2.72-2.295Z" transform="translate(-284.595 -192.138)"/>
          <path id="Path_2799" data-name="Path 2799" class="cls-12" d="M346.7,215.907a10.863,10.863,0,0,0-9.056-.358l.474,1.431,8,.315Z" transform="translate(-304.705 -180.165)"/>
          <path id="Path_2800" data-name="Path 2800" class="cls-11" d="M342.081,224.585l-.661.069-.814-.032-.652-.121-2.506-2.564-.392.1-.878,1.065s1.726,4.472,1.83,4.625.3.236.6-.1,1.239-1.435,1.239-1.435.271-.263.381.052,1.484-.482,1.484-.482l.084.3s.214-.239.4.09,1.126,1.752,1.192,1.816.361.283.589-.141c.2-.39,2.664-5.367,3.091-6.236l-.973-.525Z" transform="translate(-303.73 -184.375)"/>
          <path id="Path_2801" data-name="Path 2801" class="cls-11" d="M345.536,230.855l-.661.069-.814-.032-.653-.121-.248-.254-.586.924s1.207.444,1.164,1.515l-2.356,26.862h1.3l2.356-26.81a1.822,1.822,0,0,1,1.279-1.42l-.511-.967Z" transform="translate(-307.185 -190.645)"/>
          <path id="Path_2802" data-name="Path 2802" class="cls-13" d="M344.457,198.586h0a3.45,3.45,0,0,1,3.3,3.571l-.179,4.544a3.45,3.45,0,0,1-3.571,3.3h0a3.452,3.452,0,0,1-3.3-3.571l.179-4.544a3.45,3.45,0,0,1,3.571-3.3Z" transform="translate(-306.735 -169.446)"/>
          <path id="Path_2803" data-name="Path 2803" class="cls-11" d="M347.4,230.266l.4-.049a.4.4,0,0,1,.081.228c.006.141,0,.56,0,.56-.147.046-.924.173-.9.064.006-.026.422-.8.422-.8Z" transform="translate(-310.899 -190.446)"/>
          <path id="Path_2804" data-name="Path 2804" class="cls-11" d="M351.942,230.392l-.39-.081a.4.4,0,0,0-.1.223c-.017.141-.043.557-.043.557.142.118.91.245.889.135-.006-.026-.358-.834-.358-.834Z" transform="translate(-313.842 -190.508)"/>
          <path id="Path_2805" data-name="Path 2805" class="cls-14" d="M356.119,218.219c.044.04.5.912.734,1.333a1.107,1.107,0,0,1,.026.907c-.19.563-2.584,5.133-2.584,5.133s-.167.243-.41-.009-2.052-3.3-2.052-3.3l3.8-3.707c.179-.21.444-.4.484-.355Z" transform="translate(-314.122 -182.477)"/>
          <path id="Path_2806" data-name="Path 2806" class="cls-14" d="M335.711,217.163c-.032.014-.568.872-.837,1.273a1.11,1.11,0,0,0-.1.9c.147.575,2.171,5.32,2.171,5.32s.147.251.41.02,2.307-3.129,2.307-3.129l-3.5-4c-.234-.3-.427-.407-.456-.392Z" transform="translate(-302.77 -181.779)"/>
          <path id="Path_2807" data-name="Path 2807" class="cls-13" d="M327.472,185.839c-.052,0-.1,0-.156,0h0a2.1,2.1,0,1,0,1.672.67c-.038.621-.243,1.363-1.036,1.325l.2-1.192a.72.72,0,0,0-.672-.805Z" transform="translate(-296.542 -160.987)"/>
          <path id="Path_2808" data-name="Path 2808" class="cls-13" d="M370.922,192.28c.049.014.1.032.147.049h0a2.1,2.1,0,1,1-1.793.164c-.142.606-.156,1.377.615,1.568l.153-1.2a.721.721,0,0,1,.874-.58Z" transform="translate(-325.022 -165.254)"/>
          <path id="Path_2809" data-name="Path 2809" class="cls-15" d="M340.343,158.1h0a7.2,7.2,0,0,0-8.132,6.071l-.938,6.46a7.2,7.2,0,0,0,6.071,8.132h0a7.2,7.2,0,0,0,8.132-6.071l.938-6.458a7.2,7.2,0,0,0-6.071-8.135Z" transform="translate(-300.425 -142.525)"/>
          <path id="Path_2810" data-name="Path 2810" class="cls-16" d="M339.163,185.072a7.124,7.124,0,0,0,1,.219h0a7.2,7.2,0,0,0,8.132-6.071l.938-6.458a7.1,7.1,0,0,0-.32-3.363c-2.869-.854-5.314-1.541-5.314-1.541s-9.047-.009-8.08,2.491l.257.416a2.427,2.427,0,0,1,2.162-.375c1.385.338,5.981,1.533,7.5,2.1s1.923,1.695,1.694,3.227-.069,2.136.309,2.39a7.813,7.813,0,0,1-8.28,6.969Z" transform="translate(-303.245 -149.051)"/>
          <path id="Path_2811" data-name="Path 2811" class="cls-14" d="M346.2,203.027a1.857,1.857,0,0,0,3.652.678h0a.323.323,0,0,0-.257-.375l-3.014-.56a.324.324,0,0,0-.375.257Z" transform="translate(-310.365 -172.223)"/>
          <path id="Path_2812" data-name="Path 2812" class="cls-14" d="M347.5,207.4a1.861,1.861,0,0,0,2.087.522,1.152,1.152,0,0,0-.918-.869,1.175,1.175,0,0,0-1.169.346Z" transform="translate(-311.249 -175.046)"/>
          <path id="Path_2813" data-name="Path 2813" class="cls-14" d="M350.793,203.443l-2.835-.526a.651.651,0,0,0,.182.756,8.193,8.193,0,0,0,2.477.323,1.113,1.113,0,0,0,.176-.554Z" transform="translate(-311.521 -172.324)"/>
          <path id="Path_2814" data-name="Path 2814" class="cls-13" d="M362.2,201.348a.945.945,0,1,0,.777,1.086.948.948,0,0,0-.777-1.086Z" transform="translate(-320.276 -171.274)"/>
          <path id="Path_2815" data-name="Path 2815" class="cls-13" d="M338.372,197.424a.945.945,0,1,0,.777,1.086.948.948,0,0,0-.777-1.086Z" transform="translate(-304.458 -168.669)"/>
          <path id="Path_2816" data-name="Path 2816" class="cls-17" d="M340.759,188.763a.669.669,0,0,0-.127-.494.658.658,0,0,0-.436-.26.663.663,0,0,0-.754.563.255.255,0,0,1-.5-.075,1.191,1.191,0,0,1,.459-.774,1.176,1.176,0,0,1,.872-.219,1.158,1.158,0,0,1,.774.459,1.178,1.178,0,0,1,.222.872.258.258,0,0,1-.291.217.255.255,0,0,1-.214-.289Zm7.315,1.062a.657.657,0,0,0-.124-.494.664.664,0,0,0-1.19.3.255.255,0,1,1-.505-.075,1.174,1.174,0,1,1,2.324.338.255.255,0,0,1-.5-.073Zm.557-2.289a1.865,1.865,0,0,0-1.732-.259.258.258,0,0,1-.335-.139.255.255,0,0,1,.139-.332,2.383,2.383,0,0,1,2.217.312.255.255,0,0,1,.064.355.252.252,0,0,1-.352.063Zm-9.067-1.316a.254.254,0,1,1-.162-.482,2.385,2.385,0,0,1,2.217.329.256.256,0,0,1,.035.358.252.252,0,0,1-.358.037,1.863,1.863,0,0,0-1.732-.242Z" transform="translate(-305.561 -160.83)"/>
          <path id="Path_2817" data-name="Path 2817" class="cls-18" d="M331.639,168.9s1.123-.277,1.388-2.093.2-1.371.335-2.318a2.584,2.584,0,0,1,2.959-2.232l3.461.5s1.539.222,3.461.5a2.585,2.585,0,0,1,2.2,2.982c-.135.947-.072.5-.335,2.318s.733,2.4.733,2.4a3.507,3.507,0,0,1,.73-1.942s.28-1.929.526-3.615a6.5,6.5,0,0,0-1.885-5.892,8.578,8.578,0,0,0-9.714-1.409,6.5,6.5,0,0,0-3.485,5.113c-.245,1.683-.525,3.612-.525,3.612a3.49,3.49,0,0,1,.15,2.07Z" transform="translate(-300.618 -141.99)"/>
          <path id="Path_2818" data-name="Path 2818" class="cls-18" d="M343.124,157.782a7.253,7.253,0,0,0,8.1,1.458s2.082-1.227,2.728-.288c0,0,1.452-3.8-1.813-4.778,0,0,.75-.376.707-.863s-1.12-1.951-4.486-1.218a1.511,1.511,0,0,0-.967-1.559c-1.077-.349-4.677.872-5.534,3.343,0,0-.7,1.816,1.267,3.906Z" transform="translate(-307.42 -137.511)"/>
          <path id="Path_2819" data-name="Path 2819" class="cls-19" d="M355.71,157.261a3.267,3.267,0,0,0-.113-.525,8.376,8.376,0,0,1-6.094.352c-2.771-.719-3-3.508-2.754-5.563a6.513,6.513,0,0,0-2.792,1.928c.006,1.008.522,2.471,2.8,4.013,3.23,2.18,7.315.595,8.949-.2Z" transform="translate(-308.895 -138.208)"/>
          <path id="Path_2820" data-name="Path 2820" class="cls-15" d="M254.6,141.349l.011.551a.962.962,0,0,1,.471.543,6.108,6.108,0,0,1,.294.777l2.881-1.045.012-.225-.228-.687a.209.209,0,0,1,0-.205l-1.461-.644Z" transform="translate(-249.579 -130.833)"/>
          <path id="Path_2821" data-name="Path 2821" class="cls-10" d="M282.051,169.831s-13.784-7.205-15.97-9.654-3.207-5.871-6.542-15.663c0,0-.121-.456-.828-.407a7.924,7.924,0,0,0-2.967,1.083,1.261,1.261,0,0,0-.326,1.137c.1.462,4.03,15.71,5.145,17.99s11.206,11.663,13.305,13.851,8.184-8.337,8.184-8.337Z" transform="translate(-250.1 -133.282)"/>
          <path id="Path_2822" data-name="Path 2822" class="cls-11" d="M258.131,144.424a7.3,7.3,0,0,0-2.387.979,1.261,1.261,0,0,0-.326,1.137c.1.462,4.03,15.71,5.145,17.99s11.206,11.663,13.305,13.851c.655.684,1.7.124,2.829-.967.092-.575.118-.935.052-1-.485-.447-1.129-.97-4.677-3.926s-9.059-8.037-9.971-9.916-3.738-11.827-4.651-14.809c-.88-2.87.569-3.314.681-3.343Z" transform="translate(-250.1 -133.495)"/>
          <path id="Path_2823" data-name="Path 2823" class="cls-15" d="M248.877,119.148a4.287,4.287,0,0,1,1.039-2.09c.32-.338-1.218-1.273-1.819.349,0,0-.543.612-.855.433s-.8-4.925-.857-5.442a.546.546,0,0,0-.817-.409c-.159.147-.072.9-.026,1.853a10.74,10.74,0,0,1,0,2.133c-.081.1-.3.1-.528-.419a28.009,28.009,0,0,0-1.646-3.545c-.257-.144-.731.121-.687.606s1.325,3.355,1.371,3.773-.369.4-.557.173-2.012-3.144-2.249-3.285-.71.144-.534.635,1.807,3.354,1.8,3.6-.326.424-.858.049a15.956,15.956,0,0,0-1.746-1.288c-.2-.008-.453.6.02,1.08s1.605,1.718,1.75,1.922a33.572,33.572,0,0,0,1.868,3.026,2.5,2.5,0,0,0,.967.621,3.624,3.624,0,0,0,2.867-.188c1.487-.805,1.221-2.1,1.5-3.586Z" transform="translate(-239.66 -111.914)"/>
          <path id="Path_2824" data-name="Path 2824" class="cls-15" d="M318.644,321.995l-.912.78h-7.607a2.618,2.618,0,0,1,.794-1.236,1.156,1.156,0,0,1,.45-.1,1.59,1.59,0,0,1,.589-.456,26.961,26.961,0,0,1,3.057-.739,8.667,8.667,0,0,1,2.272.161,10.49,10.49,0,0,0,1.129-.1Z" transform="translate(-286.436 -250.18)"/>
          <path id="Path_2825" data-name="Path 2825" class="cls-10" d="M352.076,234.276s1.4.987,2.07,3.969,2.367,18.144,2.688,20.777.216,6.712-5.588,6.712H332.751v-2.705a.858.858,0,0,1,.927-.955c.471,0,14.6-1.533,15.268-1.72a1.263,1.263,0,0,0,1.02-1.372c.029-.806-2.284-10.132-2.769-13.625s1.559-11.181,4.879-11.08Z" transform="translate(-301.455 -193.139)"/>
          <path id="Path_2826" data-name="Path 2826" class="cls-11" d="M356.934,311.742c.055,2.495-.777,5.416-5.689,5.416H332.751v-2.125a3.772,3.772,0,0,0,3.144,1.212h14.569c2.229,0,6.389-1.613,6.47-4.5Z" transform="translate(-301.455 -244.563)"/>
          <path id="Path_2827" data-name="Path 2827" class="cls-11" d="M375.582,245.356c.329,2.361,1.49,7.39,2.2,10.649a27.976,27.976,0,0,1,.569,2.977,1.244,1.244,0,0,1-.863,1.322,2.239,2.239,0,0,0,2.113-1.773c.208-.753.024-3.922-.565-9.784q-.156-1.541-.347-3.331a14.667,14.667,0,0,1,1.574-9.117,9.5,9.5,0,0,1,.889-1.284,3.482,3.482,0,0,0-.689-.739c-3.321-.1-5.361,7.587-4.879,11.08Z" transform="translate(-329.841 -193.139)"/>
          <path id="Path_2828" data-name="Path 2828" class="cls-20" d="M348.537,198.241s.632-.659.834-.834.242.026.22.289.043.768-.1.886-.84,0-.987-.061.032-.28.032-.28Z" transform="translate(-311.875 -168.622)"/>
        </g>
      </g>
      <path id="Path_2829" data-name="Path 2829" class="cls-1" d="M206.357,243.823a.209.209,0,1,1,.419,0v.944a.209.209,0,1,1-.419,0Zm-1.431.768a.212.212,0,0,1,0-.3.208.208,0,0,1,.3,0l.667.667a.207.207,0,0,1,0,.3.212.212,0,0,1-.3,0Zm-.471,1.553a.211.211,0,0,1,0-.422h.944a.211.211,0,0,1,0,.422Zm.768,1.429a.209.209,0,0,1-.3-.295l.667-.67a.213.213,0,0,1,.3,0,.208.208,0,0,1,0,.3Zm1.553.47a.209.209,0,1,1-.419,0V247.1a.209.209,0,1,1,.419,0Zm1.432-.765a.209.209,0,1,1-.3.295l-.667-.667a.209.209,0,0,1,.294-.3Zm.468-1.556a.211.211,0,0,1,0,.422h-.944a.211.211,0,0,1,0-.422Zm-.765-1.429a.208.208,0,0,1,.3,0,.213.213,0,0,1,0,.3l-.67.667a.209.209,0,0,1-.294-.3Z" transform="translate(-154.518 -180.889)"/>
      <g id="Group_1243" data-name="Group 1243" transform="translate(10.54 98.973)">
        <path id="Path_2830" data-name="Path 2830" class="cls-21" d="M87.713,352.428H88.9a.4.4,0,0,1,.4.395v1.19a.4.4,0,0,1-.4.395H87.713a.4.4,0,0,1-.4-.395v-1.19a.4.4,0,0,1,.4-.395Z" transform="translate(-87.318 -352.428)"/>
        <path id="Path_2831" data-name="Path 2831" class="cls-21" d="M99.778,352.428h1.189a.4.4,0,0,1,.4.395v1.19a.4.4,0,0,1-.4.395H99.778a.4.4,0,0,1-.4-.395v-1.19a.4.4,0,0,1,.4-.395Z" transform="translate(-95.327 -352.428)"/>
        <path id="Path_2832" data-name="Path 2832" class="cls-21" d="M111.843,352.428h1.189a.4.4,0,0,1,.4.395v1.19a.4.4,0,0,1-.4.395h-1.189a.4.4,0,0,1-.4-.395v-1.19a.4.4,0,0,1,.4-.395Z" transform="translate(-103.335 -352.428)"/>
        <path id="Path_2833" data-name="Path 2833" class="cls-21" d="M123.916,352.428H125.1a.4.4,0,0,1,.4.395v1.19a.4.4,0,0,1-.4.395h-1.187a.4.4,0,0,1-.4-.395v-1.19a.4.4,0,0,1,.4-.395Z" transform="translate(-111.35 -352.428)"/>
      </g>
      <path id="Path_2834" data-name="Path 2834" class="cls-1" d="M161.413,78.761a.209.209,0,0,1,.419,0V79.7a.209.209,0,1,1-.419,0Zm-1.432.768a.21.21,0,0,1,.3-.3l.667.666a.209.209,0,0,1-.294.3Zm-.468,1.553a.21.21,0,0,1-.211-.211.207.207,0,0,1,.211-.207h.944a.207.207,0,0,1,.208.207.209.209,0,0,1-.208.211Zm.765,1.432a.21.21,0,0,1-.3-.3l.67-.67a.209.209,0,0,1,.294,0,.207.207,0,0,1,0,.3Zm1.553.468a.209.209,0,1,1-.419,0v-.944a.209.209,0,0,1,.419,0Zm1.432-.765a.21.21,0,0,1-.3.3l-.667-.67a.207.207,0,0,1,0-.3.213.213,0,0,1,.3,0Zm.471-1.553a.207.207,0,0,1,.208.207.209.209,0,0,1-.208.211h-.944a.21.21,0,0,1-.211-.211.207.207,0,0,1,.211-.207Zm-.768-1.432a.21.21,0,0,1,.3.3l-.667.667a.212.212,0,0,1-.3,0,.208.208,0,0,1,0-.3Z" transform="translate(-124.564 -70.71)"/>
      <g id="Group_1244" data-name="Group 1244" transform="translate(46.118 48.169)">
        <path id="Path_2835" data-name="Path 2835" class="cls-22" d="M193.892,199.87h1.189a.4.4,0,0,1,.4.4v1.189a.4.4,0,0,1-.4.4h-1.189a.4.4,0,0,1-.4-.4v-1.189a.4.4,0,0,1,.4-.4Z" transform="translate(-193.496 -199.87)"/>
        <path id="Path_2836" data-name="Path 2836" class="cls-22" d="M205.965,199.87h1.186a.4.4,0,0,1,.4.4v1.189a.4.4,0,0,1-.4.4h-1.186a.4.4,0,0,1-.4-.4v-1.189a.4.4,0,0,1,.4-.4Z" transform="translate(-201.511 -199.87)"/>
        <path id="Path_2837" data-name="Path 2837" class="cls-22" d="M218.03,199.87h1.189a.4.4,0,0,1,.4.4v1.189a.4.4,0,0,1-.4.4H218.03a.4.4,0,0,1-.4-.4v-1.189a.4.4,0,0,1,.4-.4Z" transform="translate(-209.519 -199.87)"/>
        <path id="Path_2838" data-name="Path 2838" class="cls-22" d="M230.1,199.87h1.187a.4.4,0,0,1,.395.4v1.189a.4.4,0,0,1-.395.4H230.1a.4.4,0,0,1-.4-.4v-1.189a.4.4,0,0,1,.4-.4Z" transform="translate(-217.534 -199.87)"/>
      </g>
      <g id="Group_1245" data-name="Group 1245" transform="translate(135.566 1.181)">
        <path id="Path_2839" data-name="Path 2839" class="cls-4" d="M489.928,90.659v25.694H485.82a5.329,5.329,0,0,0-5.34,5.286h0a5.331,5.331,0,0,0,5.34,5.285h4.108V179.6H466.41V61.293a20.321,20.321,0,0,1,11.6,18.254h0a11.2,11.2,0,0,0,11.227,11.111Z" transform="translate(-464.357 -60.433)"/>
        <path id="Path_2840" data-name="Path 2840" class="cls-9" d="M464.408,60.723V177.9H460.3V58.734a20.506,20.506,0,0,1,4.105,1.989Z" transform="translate(-460.303 -58.734)"/>
        <path id="Path_2841" data-name="Path 2841" class="cls-9" d="M479.491,70.516V183.153h-4.108V66.651a20.751,20.751,0,0,1,4.108,3.865Z" transform="translate(-470.313 -63.989)"/>
        <path id="Path_2842" data-name="Path 2842" class="cls-9" d="M494.578,97.044v96.41h-4.107V82.168a19.96,19.96,0,0,1,3.507,11.3h0a10.888,10.888,0,0,0,.6,3.575Z" transform="translate(-480.329 -74.29)"/>
        <path id="Path_2843" data-name="Path 2843" class="cls-9" d="M509.664,137.153v27.9a5.355,5.355,0,0,0-3.2,4.887h0a5.355,5.355,0,0,0,3.2,4.887v53.672h-4.107V133.106a11.359,11.359,0,0,0,4.107,4.047Z" transform="translate(-490.343 -109.331)"/>
        <path id="Path_2844" data-name="Path 2844" class="cls-9" d="M524.752,147.589v25.972h-2.93a5.274,5.274,0,0,0-1.177.133V146.613a11.174,11.174,0,0,0,4.108.976Zm0,36.653v53.219h-4.108V184.11a5.273,5.273,0,0,0,1.177.133Z" transform="translate(-500.358 -118.298)"/>
      </g>
      <g id="Group_1246" data-name="Group 1246" transform="translate(104.615 110.84)">
        <path id="Path_2845" data-name="Path 2845" class="cls-22" d="M368.337,388.578h1.189a.4.4,0,0,1,.4.4v1.186a.4.4,0,0,1-.4.4h-1.189a.4.4,0,0,1-.4-.4v-1.186a.4.4,0,0,1,.4-.4Z" transform="translate(-367.941 -388.578)"/>
        <path id="Path_2846" data-name="Path 2846" class="cls-22" d="M380.411,388.578H381.6a.394.394,0,0,1,.395.4v1.186a.4.4,0,0,1-.395.4h-1.187a.4.4,0,0,1-.4-.4v-1.186a.394.394,0,0,1,.4-.4Z" transform="translate(-375.957 -388.578)"/>
        <path id="Path_2847" data-name="Path 2847" class="cls-22" d="M392.474,388.578h1.19a.4.4,0,0,1,.4.4v1.186a.4.4,0,0,1-.4.4h-1.19a.4.4,0,0,1-.4-.4v-1.186a.4.4,0,0,1,.4-.4Z" transform="translate(-383.964 -388.578)"/>
        <path id="Path_2848" data-name="Path 2848" class="cls-22" d="M404.547,388.578h1.187a.394.394,0,0,1,.4.4v1.186a.4.4,0,0,1-.4.4h-1.187a.4.4,0,0,1-.4-.4v-1.186a.4.4,0,0,1,.4-.4Z" transform="translate(-391.978 -388.578)"/>
      </g>
      <g id="Group_1247" data-name="Group 1247" transform="translate(111.405 4.351)">
        <path id="Path_2849" data-name="Path 2849" class="cls-22" d="M388.584,68.164h1.19a.4.4,0,0,1,.4.4v1.186a.4.4,0,0,1-.4.4h-1.19a.4.4,0,0,1-.4-.4V68.559a.4.4,0,0,1,.4-.4Z" transform="translate(-388.189 -68.164)"/>
        <path id="Path_2850" data-name="Path 2850" class="cls-22" d="M400.659,68.164h1.186a.4.4,0,0,1,.4.4v1.186a.4.4,0,0,1-.4.4h-1.186a.394.394,0,0,1-.395-.4V68.559a.393.393,0,0,1,.395-.4Z" transform="translate(-396.205 -68.164)"/>
        <path id="Path_2851" data-name="Path 2851" class="cls-22" d="M412.724,68.164h1.186a.4.4,0,0,1,.4.4v1.186a.4.4,0,0,1-.4.4h-1.186a.4.4,0,0,1-.4-.4V68.559a.4.4,0,0,1,.4-.4Z" transform="translate(-404.213 -68.164)"/>
        <path id="Path_2852" data-name="Path 2852" class="cls-22" d="M424.788,68.164h1.19a.4.4,0,0,1,.4.4v1.186a.4.4,0,0,1-.4.4h-1.19a.4.4,0,0,1-.4-.4V68.559a.4.4,0,0,1,.4-.4Z" transform="translate(-412.222 -68.164)"/>
      </g>
      <g id="Group_1248" data-name="Group 1248" transform="translate(168.141 76.814)">
        <path id="Path_2853" data-name="Path 2853" class="cls-22" d="M558.016,285.887H559.2a.4.4,0,0,1,.4.4v1.186a.4.4,0,0,1-.4.4h-1.186a.4.4,0,0,1-.4-.4v-1.186a.394.394,0,0,1,.4-.4Z" transform="translate(-557.621 -285.887)"/>
        <path id="Path_2854" data-name="Path 2854" class="cls-22" d="M570.08,285.887h1.189a.4.4,0,0,1,.4.4v1.186a.4.4,0,0,1-.4.4H570.08a.4.4,0,0,1-.4-.4v-1.186a.4.4,0,0,1,.4-.4Z" transform="translate(-565.629 -285.887)"/>
        <path id="Path_2855" data-name="Path 2855" class="cls-22" d="M582.146,285.887h1.189a.4.4,0,0,1,.4.4v1.186a.4.4,0,0,1-.4.4h-1.189a.4.4,0,0,1-.4-.4v-1.186a.4.4,0,0,1,.4-.4Z" transform="translate(-573.638 -285.887)"/>
        <path id="Path_2856" data-name="Path 2856" class="cls-22" d="M594.218,285.887H595.4a.394.394,0,0,1,.4.4v1.186a.4.4,0,0,1-.4.4h-1.186a.4.4,0,0,1-.4-.4v-1.186a.4.4,0,0,1,.4-.4Z" transform="translate(-581.652 -285.887)"/>
      </g>
      <g id="Group_1249" data-name="Group 1249" transform="translate(13.805 69.567)">
        <path id="Path_2857" data-name="Path 2857" class="cls-10" d="M147.247,313.507a39.426,39.426,0,0,1,.924-8.279l.018-.072c.032-.127.13-.37.384-.3a22.135,22.135,0,0,1,5.736,4.313c2.606,2.653,2.563-1.337.3-2.907s-4.573-2.231-5.266-2.832a1.461,1.461,0,0,1-.571-1.287h0c.54-3.04.944-6.155,1.227-9.224l0,0s.13-.669.765.116,3.1,3.52,5.023,3.7.162-2.861-2.549-4.353-3.043-1.81-3.017-2.173v0c.173-2.416.274-4.78.312-7.032h0s.11-.4.468-.112,3.054,3.378,4.492,3.051.04-2.956-2.252-3.877-2.69-1.2-2.693-1.539h0c-.023-6.666-.612-12.035-1.5-14.319-.921-2.379,4.93,3,10.34,11.784a2.29,2.29,0,0,1,.133,2.229c-.323,1.039-.679,3.383.17,2.838s.964-2.6,1.033-2.641a.076.076,0,0,1,.1.017c.886,1.571,1.738,3.225,2.529,4.942.814,1.928-.274,3.245-1.79,5.127-1.57,1.951-1.287,4.024.381,3.152s2.445-4.925,2.584-5.034.22.049.234.078a47.266,47.266,0,0,1,2.517,8.827c.113,1.5-1.111,2.745-2.4,4.775-1.293,2.046-.3,3.279.722,3s1.709-2.774,1.931-2.936c.205-.15.269-.024.277,0a28.411,28.411,0,0,1-.947,8.709,57.908,57.908,0,0,1-2.168,6.482H151.459Z" transform="translate(-130.365 -265.807)"/>
        <path id="Path_2858" data-name="Path 2858" class="cls-8" d="M175.762,333.811a232.3,232.3,0,0,0-7.725-43.386.524.524,0,1,0-1,.294,231.086,231.086,0,0,1,7.693,43.092Z" transform="translate(-143.485 -281.899)"/>
        <path id="Path_2859" data-name="Path 2859" class="cls-23" d="M198.171,322.234c10.046-5.95,12.821,6.432,10.785,12.041-1.51,4.151-6.862,13.247-10.632,19.852H184.309c1.818-13.88,6.469-27.514,13.862-31.894Z" transform="translate(-154.967 -302.216)"/>
        <path id="Path_2860" data-name="Path 2860" class="cls-24" d="M202.461,361.041a164.09,164.09,0,0,1,12.982-29.723.571.571,0,0,1,.646-.223.342.342,0,0,1,.228.506,163.485,163.485,0,0,0-12.89,29.44Z" transform="translate(-167.017 -309.129)"/>
        <path id="Path_2861" data-name="Path 2861" class="cls-22" d="M97.186,291.806c3.1-11.709,14.015-5.3,18.7,4.711,2.647,5.65,7.231,20.555,12.39,34.282h-13.1l-3.894-2.186c-9.062-16.945-15.338-32.13-14.1-36.807Z" transform="translate(-97.03 -278.887)"/>
        <path id="Path_2862" data-name="Path 2862" class="cls-14" d="M130.495,336.916a216.278,216.278,0,0,1-15.179-37.326.487.487,0,0,1,.936-.272,214.088,214.088,0,0,0,16.622,39.974Z" transform="translate(-109.156 -287.819)"/>
      </g>
      <g id="Group_1250" data-name="Group 1250" transform="translate(153.305 59.621)">
        <rect id="Rectangle_366" data-name="Rectangle 366" class="cls-3" width="12.459" height="3.775" transform="translate(33.043 24.843)"/>
        <rect id="Rectangle_367" data-name="Rectangle 367" class="cls-3" width="12.463" height="3.775" transform="translate(27.592 29.375)"/>
        <path id="Path_2863" data-name="Path 2863" class="cls-4" d="M634.4,323.6h7.884a26.546,26.546,0,0,1,.407,3.775H634.4Z" transform="translate(-593.749 -294.226)"/>
        <rect id="Rectangle_368" data-name="Rectangle 368" class="cls-3" width="12.459" height="3.777" transform="translate(33.043 33.904)"/>
        <path id="Path_2864" data-name="Path 2864" class="cls-4" d="M650.609,337.072h2.855c0,.07,0,.139,0,.208h0a26.4,26.4,0,0,1-.241,3.569h-2.618Z" transform="translate(-604.512 -303.168)"/>
        <path id="Path_2865" data-name="Path 2865" class="cls-4" d="M634.4,350.555h7.953a26.5,26.5,0,0,1-.912,3.776H634.4Z" transform="translate(-593.749 -312.118)"/>
        <path id="Path_2866" data-name="Path 2866" class="cls-1" d="M568.077,362.059a.211.211,0,1,1,.421,0V363a.211.211,0,1,1-.421,0Zm-1.43.765a.209.209,0,0,1,0-.3.213.213,0,0,1,.3,0l.667.67a.21.21,0,0,1-.3.3Zm-.47,1.556a.211.211,0,0,1,0-.422h.943a.211.211,0,0,1,0,.422Zm.768,1.429a.21.21,0,0,1-.3-.3l.667-.667a.21.21,0,1,1,.3.3Zm1.553.471a.211.211,0,0,1-.421,0v-.945a.211.211,0,0,1,.421,0Zm1.429-.768a.208.208,0,0,1,0,.3.2.2,0,0,1-.295,0l-.669-.667a.21.21,0,1,1,.3-.3Zm.471-1.553a.211.211,0,0,1,0,.422h-.945a.211.211,0,0,1,0-.422Zm-.765-1.432a.209.209,0,1,1,.295.3l-.667.67a.21.21,0,0,1-.3-.3Z" transform="translate(-548.325 -319.615)"/>
        <path id="Path_2867" data-name="Path 2867" class="cls-10" d="M637.615,274.406c2.9,9.408,3.98,14.521,5.536,18.75a26.377,26.377,0,0,0,1.19-7.853h0v-13.5c0-24.541-10.3-8.992-6.726,2.6Z" transform="translate(-595.386 -251.191)"/>
        <path id="Path_2868" data-name="Path 2868" class="cls-10" d="M519.8,381.847a36.332,36.332,0,0,1-5.944-11.868c-2.4-8.475,7.448.915,15.216,11.868Z" transform="translate(-513.489 -322.836)"/>
        <path id="Path_2869" data-name="Path 2869" class="cls-10" d="M555.5,345.851c-2.425-4.1-4.832-9.5-5.211-15.174-.8-11.948-1.025-15.7-3.3-17.638-1.951-1.66,21.587-1.3,31.457,24.893a26.808,26.808,0,0,1-11.088,7.919Z" transform="translate(-535.65 -286.84)"/>
        <path id="Path_2870" data-name="Path 2870" class="cls-8" d="M554.417,312.645c8.912,8.106,15.921,20.092,21.06,31.279-.245.145-.494.286-.742.421-5.265-11.486-12.508-23.818-21.752-31.838.425.02.907.066,1.435.139Z" transform="translate(-539.705 -286.861)"/>
        <path id="Path_2871" data-name="Path 2871" class="cls-23" d="M591.6,248.88c1.967,4.841,4.864,15.7,8.291,27.384a26.728,26.728,0,0,1-9.691,15.107c-8.3-11.854-15.531-25.32-18.233-36-5.435-21.489,11.475-26.611,19.633-6.492Z" transform="translate(-551.609 -236.222)"/>
        <path id="Path_2872" data-name="Path 2872" class="cls-8" d="M609.179,298.538c-11.5-20.1-16.85-43.685-16.874-43.786a.43.43,0,0,1,.837-.194c.024.1,5.3,23.352,16.591,43.242-.182.248-.367.5-.554.739Z" transform="translate(-565.801 -248.173)"/>
        <path id="Path_2873" data-name="Path 2873" class="cls-23" d="M564.48,378.734a28.472,28.472,0,0,0-2.1-6.184c-3.831-8.042-13.409-11.171-16.134-9.948-2.226,1-6.709,7.2-3.363,16.354h21.027c.19-.072.378-.145.566-.223Z" transform="translate(-532.208 -319.946)"/>
        <path id="Path_2874" data-name="Path 2874" class="cls-25" d="M564.795,381.077a27.752,27.752,0,0,0,1.628-5.945.241.241,0,0,0-.225-.263.244.244,0,0,0-.262.225,26.531,26.531,0,0,1-1.542,5.664,54.455,54.455,0,0,0-4.145-6.848,22.315,22.315,0,0,0,.774-5.881.245.245,0,1,0-.49.018,21.281,21.281,0,0,1-.655,5.346,55.105,55.105,0,0,0-6.822-7.722.489.489,0,0,0-.67.713c1.311,1.23,2.511,2.48,3.617,3.739a14.859,14.859,0,0,0-4.012-.222.247.247,0,0,0-.22.268.244.244,0,0,0,.268.216,15.076,15.076,0,0,1,4.487.341,53.255,53.255,0,0,1,4.414,5.953,39.432,39.432,0,0,0-10.214.314.245.245,0,1,0,.09.482,38.963,38.963,0,0,1,10.456-.269c.82,1.314,1.547,2.61,2.191,3.869Z" transform="translate(-538.074 -322.066)"/>
      </g>
      <g id="Group_1252" data-name="Group 1252" transform="translate(162.378 14.959)">
        <g id="Group_1251" data-name="Group 1251" transform="translate(0 2.445)">
          <path id="Path_2875" data-name="Path 2875" class="cls-21" d="M540.927,106.993h1.351a.451.451,0,0,1,.451.45v1.348a.451.451,0,0,1-.451.45h-1.351a.45.45,0,0,1-.45-.45v-1.348a.45.45,0,0,1,.45-.45Z" transform="translate(-540.477 -106.993)"/>
          <path id="Path_2876" data-name="Path 2876" class="cls-21" d="M554.647,106.993H556a.451.451,0,0,1,.45.45v1.348a.451.451,0,0,1-.45.45h-1.348a.451.451,0,0,1-.45-.45v-1.348a.451.451,0,0,1,.45-.45Z" transform="translate(-549.585 -106.993)"/>
          <path id="Path_2877" data-name="Path 2877" class="cls-21" d="M568.367,106.993h1.351a.45.45,0,0,1,.45.45v1.348a.45.45,0,0,1-.45.45h-1.351a.45.45,0,0,1-.447-.45v-1.348a.45.45,0,0,1,.447-.45Z" transform="translate(-558.694 -106.993)"/>
          <path id="Path_2878" data-name="Path 2878" class="cls-21" d="M582.083,106.993h1.351a.45.45,0,0,1,.447.45v1.348a.45.45,0,0,1-.447.45h-1.351a.451.451,0,0,1-.45-.45v-1.348a.451.451,0,0,1,.45-.45Z" transform="translate(-567.797 -106.993)"/>
        </g>
        <path id="Path_2879" data-name="Path 2879" class="cls-26" d="M639.752,99.96a.24.24,0,1,1,.479,0v1.074a.24.24,0,0,1-.479,0Zm-1.625.872a.24.24,0,0,1,0-.338.235.235,0,0,1,.337,0l.759.759a.239.239,0,1,1-.338.338Zm-.535,1.764a.238.238,0,1,1,0-.476h1.074a.238.238,0,0,1,0,.476Zm.872,1.628a.239.239,0,0,1-.337-.338l.759-.759a.239.239,0,0,1,.338.338Zm1.767.534a.24.24,0,0,1-.479,0v-1.074a.24.24,0,0,1,.479,0Zm1.625-.872a.239.239,0,1,1-.337.338l-.76-.759a.239.239,0,0,1,.338-.338Zm.534-1.767a.238.238,0,1,1,0,.476h-1.074a.238.238,0,0,1,0-.476Zm-.871-1.625a.235.235,0,0,1,.337,0,.241.241,0,0,1,0,.338l-.76.759a.239.239,0,1,1-.338-.338Z" transform="translate(-604.785 -99.72)"/>
      </g>
      <path id="Path_2880" data-name="Path 2880" class="cls-26" d="M87.785,226.1a.238.238,0,1,1,.476,0v1.074a.238.238,0,0,1-.476,0Zm-1.625.872a.235.235,0,0,1,0-.338.24.24,0,0,1,.338,0l.757.759a.238.238,0,0,1-.335.338Zm-.534,1.767a.24.24,0,0,1,0-.479H86.7a.24.24,0,0,1,0,.479Zm.872,1.625a.239.239,0,0,1-.338,0,.235.235,0,0,1,0-.338l.759-.759a.238.238,0,0,1,.335.338Zm1.764.534a.238.238,0,1,1-.476,0v-1.074a.238.238,0,1,1,.476,0Zm1.628-.872a.239.239,0,0,1-.338.338l-.759-.759a.239.239,0,0,1,.338-.338Zm.534-1.767a.24.24,0,0,1,0,.479H89.35a.24.24,0,0,1,0-.479Zm-.872-1.625a.239.239,0,0,1,.338.338l-.759.759a.239.239,0,0,1-.338-.338Z" transform="translate(-75.496 -169.052)"/>
      <g id="Group_1253" data-name="Group 1253" transform="translate(0 118.877)">
        <path id="Path_2881" data-name="Path 2881" class="cls-17" d="M58.655,412.484H267.278a2.7,2.7,0,0,1,2.69,2.693h0a2.7,2.7,0,0,1-2.69,2.7H258.21a1.5,1.5,0,0,0-1.493,1.5h0a1.5,1.5,0,0,0,1.493,1.5h3.316a1.874,1.874,0,0,1,1.868,1.871h0a1.873,1.873,0,0,1-1.868,1.869H64.706a1.873,1.873,0,0,1-1.868-1.869h0a1.874,1.874,0,0,1,1.868-1.871h2.611a1.5,1.5,0,0,0,1.493-1.5h0a1.5,1.5,0,0,0-1.493-1.5H58.655a2.7,2.7,0,0,1-2.687-2.7h0a2.7,2.7,0,0,1,2.687-2.693Zm1.4,12.123h0a1.8,1.8,0,0,1-1.792-1.8v-.148a1.8,1.8,0,0,1,1.792-1.8h0a1.8,1.8,0,0,1,1.792,1.8v.148a1.8,1.8,0,0,1-1.792,1.8Z" transform="translate(-55.968 -412.484)"/>
      </g>
    </g>
  </g>
</svg>
